<svg width="388" height="180" viewBox="0 0 388 180" fill="none" xmlns="http://www.w3.org/2000/svg">
	<g filter="url(#filter0_f_8370_10503)">
		<path
			d="M322.634 136.286H241.234V105.486L294.034 13.0862H338.034L285.234 105.486H322.634V72.4863H362.234V105.486H377.634V136.286H362.234V167.086H322.634V136.286Z"
			fill="url(#paint0_linear_8370_10503)" />
		<path fill-rule="evenodd" clip-rule="evenodd"
			d="M204.051 41.6862C212.851 41.6862 217.251 46.0862 217.251 54.8862V125.286C217.251 134.086 212.851 138.486 204.051 138.486H179.851C171.051 138.486 166.651 134.086 166.651 125.286V54.8862C166.651 46.0862 171.051 41.6862 179.851 41.6862H204.051ZM246.291 158.946C253.331 151.906 256.851 140.686 256.851 125.286V82.7198L243.234 106.549V136.286H235.234V105.486V104.424L235.761 103.502L256.851 66.5953V54.8862C256.851 39.4862 253.331 28.3396 246.291 21.4462C239.397 14.4062 228.251 10.8862 212.851 10.8862H171.051C155.651 10.8862 144.431 14.4062 137.391 21.4462C130.497 28.3396 127.051 39.4862 127.051 54.8862V125.286C127.051 140.686 130.497 151.906 137.391 158.946C144.431 165.84 155.651 169.286 171.051 169.286H212.851C228.251 169.286 239.397 165.84 246.291 158.946Z"
			fill="url(#paint1_linear_8370_10503)" />
		<path
			d="M119.051 125.286C119.051 141.449 122.593 155.037 131.365 164.223V167.086H91.7652V136.286H10.3652V105.486L63.1652 13.0862H107.165L54.3652 105.486H91.7652V72.4863H119.051V125.286Z"
			fill="url(#paint2_linear_8370_10503)" />
	</g>
	<defs>
		<linearGradient id="paint0_linear_8370_10503" x1="309.434" y1="13.0862" x2="309.434"
			y2="167.086" gradientUnits="userSpaceOnUse">
			<stop stop-color="#6B21F3" />
			<stop offset="1" stop-color="white" />
		</linearGradient>
		<linearGradient id="paint1_linear_8370_10503" x1="191.951" y1="10.8862" x2="191.951"
			y2="169.286" gradientUnits="userSpaceOnUse">
			<stop stop-color="#6B21F3" />
			<stop offset="1" stop-color="white" />
		</linearGradient>
		<linearGradient id="paint2_linear_8370_10503" x1="70.8652" y1="13.0862" x2="70.8652"
			y2="167.086" gradientUnits="userSpaceOnUse">
			<stop stop-color="#6B21F3" />
			<stop offset="1" stop-color="white" />
		</linearGradient>
	</defs>
</svg>