<svg xmlns="http://www.w3.org/2000/svg" viewBox="0 0 24 24" fill="none">
  <path d="M16.56 12.91L16.1 13.36C16.1 13.36 15.02 14.44 12.06 11.5C9.11 8.56 10.19 7.48 10.19 7.48L10.48 7.2C11.18 6.49 11.25 5.37 10.63 4.54L9.37 2.86C8.61 1.84 7.14 1.71 6.26 2.57L4.69 4.14C4.26 4.57 3.97 5.13 4 5.75C4.09 7.33 4.81 10.74 8.82 14.73C13.06 18.95 17.05 19.12 18.68 18.97C19.19 18.92 19.64 18.65 20 18.3L21.42 16.88C22.38 15.93 22.11 14.29 20.88 13.63L18.97 12.59C18.17 12.15 17.19 12.28 16.56 12.91Z" fill="currentColor"/>
</svg>
