<?xml version="1.0" encoding="UTF-8"?>
<svg id="Layer_1" xmlns="http://www.w3.org/2000/svg" version="1.1" viewBox="0 0 841.9 1190.6">
  <!-- Generator: Adobe Illustrator 29.5.0, SVG Export Plug-In . SVG Version: 2.1.0 Build 137)  -->
  <defs>
    <style>
      .st0 {
        fill: #010101;
      }
    </style>
  </defs>
  <g id="PVC_x5F_INSIDE">
    <path class="st0" d="M319.5,120.5l-78,20.9c-8.8,2.5-15,10.4-15,19.5v318.9c0,1.6,1.1,2.7,2.7,2.7h3.4c.9,0,1.8-.5,2.3-1.4l8.8-15.4c.7-1.1.9-2.3.9-3.6v-1.1c0-.7.5-1.1,1.1-1.1h37.9c.7,0,1.1.5,1.1,1.1v10.2h-2.9c-.7,0-1.4,0-2,.5-.9.7-1.6,1.4-1.8,2.5-.2.9,0,2,.5,2.9l1.8,3.2c.7,1.4,2,2,3.4,2h13.6c1.4,0,2.7-.9,3.4-2l1.8-3.2c.2-.7.5-1.4.5-2,0-2.3-1.8-4.1-4.1-4.1h-2.9v-10.2c0-.7.5-1.1,1.1-1.1h26.8c.7,0,1.4.5,1.8.9l27,32.2,5.9,27.7c.9,3.9,4.3,6.8,8.4,6.8h121.4c1.1,0,2-.9,2-2v-11.6c0-.2.2-.5.5-.5h10c1.1,0,2-.9,2-2v-9.8c0-.2,0-.5,0-.7-.2-2.3-2.3-3.9-4.5-3.4l-19.3,3.2h-.5q-.2,0-.2-.2v-49.7c0-.2.2-.5.5-.5h126.1c.2,0,.5.2.5.5v49.4c0,.2-.2.5-.5.5l-19.3-3.2h-.7c-2.3,0-4.1,1.8-4.1,4.1v9.8c0,1.1.9,2,2,2h10c.2,0,.5.2.5.5v11.6c0,1.1.9,2,2,2h58.3c1.4,0,2.5,1.1,2.5,2.5v77.1c0,2.3,1.8,4.1,4.1,4.1h4.5c.5,0,.9-.5.9-.9v-6.6c0-1.4,1.1-2.5,2.5-2.5h1.8c.5,0,.7,0,.9.2l15.9,15.9c.5.5.7,1.1.7,1.8v20c0,1.4-1.1,2.5-2.5,2.5h-17.9c-.7,0-1.1-.5-1.1-1.1v-7.7c0-.5-.5-.9-.9-.9h-4.5c-2.3,0-4.1,1.8-4.1,4.1v16.1c0,2.3,1.8,4.1,4.1,4.1h73.9c11.1,0,20.2-9.1,20.2-20.2v-347.5c0-4.1-3.2-7.3-7.3-7.3h-22c-.5,0-.9.2-1.1.2-1.1.2-2,.9-2.5,1.8-.7.9-.7,1.8-.5,2.9l2.3,8.8c0,.5.2.7.7.7h10.4c1.4,0,2.5,1.1,2.5,2.5v22.5c0,3.2-2.5,5.7-5.7,5.7h-40.6c-1.4,0-2.5-1.1-2.5-2.5v-8.2s8.2-29.3,8.2-29.3c.7-2.5-1.4-5-3.9-5h-22.5c-.7,0-1.4,0-2,.5-1.8,1.1-2.5,3.6-1.4,5.4l6.6,11.6c.2.7,0,1.4-.5,1.6,0,.2-.2.2-.5.2h-286.3c-5.4,0-10.9,1.8-15.2,5.2l-14.1,10.9c-.5.5-1.4.7-2,.5-8.6-2.3-16.6-6.1-23.6-11.6-3.2-2.5-5.4-5.9-6.6-9.8l-6.4-23.8c-.2-.5,0-.9.2-1.1l2.7-3.2c1.8-2,2.7-4.5,2.7-7v-91.4c0-2.3-1.8-4.1-4.1-4.1h-4.5c-.5,0-.9.5-.9.9v9.8c0,1.4-1.1,2.5-2.5,2.5h-.7c-.7,0-1.4-.2-1.8-.7l-20.6-20.6c-.5-.5-.7-1.1-.7-1.8v-9.8c0-1.1.7-2,1.8-2.3l22.9-6.1c.7,0,1.1.2,1.4.9v.2s0,5.7,0,5.7c0,.5.5.9.9.9h4.5c2.3,0,4.1-1.8,4.1-4.1v-15.9c0-.5-.2-.9-.2-1.1-.2-1.1-.9-2-1.8-2.5-.9-.5-2-.7-2.3-.5ZM686.5,590.4h29c1.6,0,2.7,1.1,2.7,2.7v43.1c0,1.6-1.1,2.7-2.7,2.7h-10.2c-2.3,0-4.1-1.8-4.1-4.1v-15.7c0-4.5-1.6-8.6-4.8-11.8l-12-12c-.7-.7-.9-1.4-.9-2s.5-1.6.9-2c.7-.7,1.4-.9,2-.9h0ZM735,590.4c1.6,0,2.7,1.1,2.7,2.7v43.1c0,1.6-1.1,2.7-2.7,2.7h-10.2c-1.6,0-2.7-1.1-2.7-2.7v-43.1c0-1.6,1.1-2.7,2.7-2.7h10.2ZM735,525.6c1.6,0,2.7,1.1,2.7,2.7v56c0,1.6-1.1,2.7-2.7,2.7h-61.7c-1.6,0-2.7-1.1-2.7-2.7v-56c0-1.6,1.1-2.7,2.7-2.7h61.7ZM735,517.4c-.9,0-1.8-.5-2.3-1.1l-31.5-41.1c-.2-.5-.5-.9-.5-1.6v-130.7c0-1.6,1.1-2.7,2.7-2.7h31.5c1.6,0,2.7,1.1,2.7,2.7v171.7c0,1.6-1.1,2.7-2.7,2.7ZM671.5,514.7c0-.5,0-1.1.5-1.6l24.7-32.2c.9-1.1,2.7-1.4,3.9-.5.2,0,.2.2.5.5l24.7,32.2c.9,1.1.7,2.9-.5,3.9-.5.2-.9.5-1.6.5h-49.2c-1.6,0-2.7-1.1-2.9-2.7ZM658.1,511.3v-.2s18.1-172.4,18.1-172.4c0-.7.2-1.4.9-1.8.7-.5,1.4-.7,2-.7.5.2.9.5,1.4.7,2.9,2.3,6.6,3.6,10.2,3.6h3.9c1.6,0,2.7,1.1,2.7,2.7v130.7c0,.5,0,1.1-.5,1.6l-30.4,39.5c-.9,1.1-2.5,1.4-3.6.7s-2-1.1-3.2-1.6-1.8-1.6-1.6-2.7ZM412.9,513.1h-16.1c-1.6,0-2.7-1.1-2.7-2.7v-43.1c0-.5.5-.9.9-.9h.7c1.1,0,1.8-.7,1.8-1.8s-.9-1.8-1.8-1.8h-.7c-.5,0-.9-.5-.9-.9v-96.4c0-.5.5-.9.9-.9h.7c1.1,0,1.8-.7,1.8-1.8s-.9-1.8-1.8-1.8h-.7c-.5,0-.9-.5-.9-.9v-43.1c0-1.6,1.1-2.7,2.7-2.7h68c.5,0,.9.5.9.9v1.4c0,1.1.7,1.8,1.8,1.8s1.8-.9,1.8-1.8v-1.4c0-.5.5-.9.9-.9h141.5c.5,0,.9.5.9.9v1.4c0,1.1.7,1.8,1.8,1.8s1.8-.9,1.8-1.8v-1.4c0-.5.5-.9.9-.9h54c1.6,0,2.7,1.1,2.7,2.7v5.7s-2.3,22.5-2.3,22.5c-.2,1.4-1.4,2.5-2.7,2.5h-10.4c-1.1,0-1.8.7-1.8,1.8s.9,1.8,1.8,1.8h9.5c1.6,0,2.9,1.1,2.7,2.9l-2.5,24.5c-.2,1.4-1.4,2.5-2.7,2.5h-25c-1.1,0-1.8.9-1.8,1.8s.9,1.8,1.8,1.8h24c1.6,0,2.9,1.4,2.7,2.9l-12.9,122.7c-.2,1.4-1.4,2.5-2.7,2.5h-27.9c-1.6,0-2.7-1.1-2.7-2.7v-59.9c0-9.1-7.5-16.6-16.6-16.6h-42.2c-1.4,0-2.5-.9-2.7-2l-2.5-9.1c-.2-1.1-1.1-1.8-2.3-1.8h-5c-.7,0-1.1.5-1.1,1.1v9.1c0,1.6-1.1,2.7-2.7,2.7h-9.1c-1.6,0-2.7-1.1-2.7-2.7v-9.1c0-.7-.5-1.1-1.1-1.1h-5c-1.1,0-2,.7-2.3,1.8l-2.5,9.1c-.5,1.1-1.6,2-2.7,2h-42.2c-9.1,0-16.6,7.5-16.6,16.6v59.9c0,1.6-1.1,2.7-2.7,2.7h-13.8c-1.6,0-2.7-1.1-2.7-2.7v-8.4c0-1.1-.9-1.8-1.8-1.8s-1.8.9-1.8,1.8v7c0,2.3-1.8,4.1-4.1,4.1h-11.6c-2.3,0-4.1-1.8-4.1-4.1v-7c0-1.1-.7-1.8-1.8-1.8s-1.8.9-1.8,1.8v8.4c0,1.6-1.1,2.7-2.7,2.7v.2ZM367.8,473.4c0-1.1-.9-1.8-1.8-1.8h-2.5c-1.6,0-2.7-1.1-2.7-2.7v-1.4c0-1.6,1.1-2.7,2.7-2.7h2.5c1.1,0,1.8-.9,1.8-1.8s-.9-1.8-1.8-1.8h-2.5c-1.6,0-2.7-1.1-2.7-2.7v-125.9c0-1.1.7-2,1.6-2.5.9-.5,2-1.1,2.9-1.8l14.1-10.9c1.8-1.6,4.1-2.3,6.4-2.3h2.7c1.6,0,2.7,1.1,2.7,2.7v192.8c0,1.6-1.1,2.7-2.7,2.7h-15.2c-1.4,0-2.5-.9-2.7-2.3l-5.2-24.7v-.7c0-.2.5-.5.7-.5,1.1,0,1.8-.9,1.8-1.8s-.9-1.8-1.8-1.8h-2.5c-1.6,0-2.7-1.1-2.7-2.7v-1.4c0-1.6,1.1-2.7,2.7-2.7h2.5c.9,0,1.8-.2,1.8-1.4ZM333.3,447.1v-80.7q0-.2,0-.5l18.8-32.7c.7-1.1,2.3-1.6,3.6-.9.9.5,1.4,1.4,1.4,2.3v134.3c0,1.6-1.1,2.7-2.7,2.7s-1.6-.2-2-.9l-16.3-19.3-2-2c-.7-.7-.9-1.4-.7-2.3ZM324.9,445.3h-1.8s-57.6,0-57.6,0c-1.6,0-2.7-1.1-2.7-2.7s0-.7.2-1.1l37-85.1c.5-.7.9-1.1,1.6-1.4.7-.5,1.6-.2,2.3,0l22.7,11.1c.9.5,1.6,1.4,1.6,2.5v74.2c0,1.6-1.1,2.7-2.7,2.7l-.5-.2ZM245.3,338.7h.7s49,13.2,49,13.2c.7.2,1.1.7,1.6,1.4.2.7.5,1.4.2,2q-.2.2-.2.5l-38.3,88c-.5.9-1.4,1.6-2.5,1.6h-10.7c-1.6,0-2.7-1.1-2.7-2.7v-101.2c0-1.4,1.1-2.7,2.9-2.7ZM248,159.7l49.7,185.3c.2.7.2,1.4-.2,2-.2.7-.9,1.1-1.6,1.4-.5.2-.9.2-1.4,0l-50.1-13.4c-1.1-.5-2-1.6-2-2.7v-171.7c0-1.4.9-2.5,2-2.7l.5-.2c1.6-.5,2.9.5,3.2,2ZM273,150.8c.7.2,1.1.9,1.4,1.6v.7s0,1.8,0,1.8c0,4.5,1.6,8.6,4.8,11.8l20.6,20.6c2,2,4.8,3.6,7.7,4.3,1.1.5,2,1.4,2,2.7v63.7c0,.7-.2,1.4-.7,1.8l-1.1,1.4c-3.4,3.9-4.8,9.1-3.4,14.1l6.4,23.8c1.8,6.8,5.9,12.9,11.3,17.2,6.8,5.4,14.5,9.8,22.9,12.5,1.6.5,2.3,2,1.8,3.4,0,.2-.2.2-.2.5l-16.3,28.4h0c-.7,1.4-2.3,1.8-3.6,1.1l-22.5-10.9c-.7-.5-1.1-1.1-1.4-1.8l-51.3-191v-.7c0-1.4.9-2.5,2-2.7l17.2-4.5c.7-.2,1.6,0,2.3.2Z"/>
  </g>
  <g id="GASKET_x5F_INSIDE">
    <path class="st0" d="M347.6,118.4c-6.8,2.3-13.6,3.6-20.6,3.6-1.6,0-2.7,1.1-2.7,2.7v12.2c0,.7.2,1.4.7,1.8s.7,1.1.7,1.8c-.2.7-.5,1.1-.9,1.6-.5.5-.9.7-1.6.7h-5.9c-.2,0-.5-.2-.5-.5l.5-1.4c.7-1.4,0-2.7-1.4-3.4s-2.9,0-3.6,1.4c-1.8,3.9-4.5,7.5-8.2,10-.7.5-1.1.9-1.6,1.6-.9,1.4-1.4,2.7-1.4,4.3v1.1c.5,2,1.4,3.6,2.9,4.8,3.6,2.5,6.4,5.9,8.2,10,.5,1.4,2,1.8,3.4,1.4.7-.2,1.4-.7,1.6-1.4s.2-1.4,0-2l-.5-1.1c-.2-.2,0-.7.2-.7h7.3c.7,0,1.1.5,1.1,1.1s-.2.7-.5.9c-.7.5-.9,1.4-.9,2v28.4c0,1.4.9,2.7,2.3,3.2.7.2,1.6.2,2.5-.2.9-.5,1.6-1.1,1.8-2,.9-2.7,1.4-5.7,1.4-8.6v-36.3c0-1.4,1.1-2.5,2.5-2.5h.5c1.4.2,2.9-.2,3.9-1.4l5-6.1c.5-.7.7-1.4.7-2,0-1.4.9-2.5,2.3-2.7,1.1,0,2,.7,2.5,1.6,0,.7.5,1.1.9,1.4l9.5,6.4c2.3,1.6,5.2,1.8,7.5.5,3.6-1.8,4.8-6.4,2.9-9.8-3.9-7.5-8.8-14.3-14.7-20.4-2-2-5-2.7-7.7-1.8ZM320.4,149.3c3.2,0,5.7,2.5,5.7,5.7,0,3.2-2.5,5.7-5.7,5.7h-8.4c-3.2,0-5.7-2.5-5.7-5.7s2.5-5.7,5.7-5.7h8.4ZM352.8,123.9c.9.9,1.8,1.8,2.5,2.7.5.2.7.9.7,1.4s0,.5.2.7c2.7,3.4,5.2,7,7.5,10.7,0,.2.2.5.5.5.5.2.9.7,1.1,1.1.2.9.7,1.6,1.1,2.3s.5,1.6.2,2.3-.7,1.4-1.4,1.8c-.9.5-2.3.5-3.2-.2l-12-8.2c-2-1.1-4.5-.9-5.9.9l-7,8.6c-.5.5-1.1.9-2,.9s-1.4,0-2,.2c-1.4.5-2.9-.5-3.4-1.8-.2-.5-.2-.7-.2-.9v-.5h0l1.1-9.1c.2-1.4.9-2.5,2.3-3.2l7.5-3.4c.7-.2,1.1-.9,1.4-1.6.5-2.5,2.3-4.3,4.8-5,1.1-.2,2.3-.5,3.2-.9.9-.5,2-.2,3.2.7Z"/>
    <path class="st0" d="M653.3,589.5c-1.6,0-2.7,1.1-2.7,2.7v.5c0,1.1-.5,2.3-.9,3.4l-12,21.5c-2.3,4.1-5,8.4-7.9,12.2-.7.7-1.6,1.4-2.5,1.6-1.1.5-2,.9-2.9,1.6-.7.5-1.6.7-2.3.7s-1.6-.2-2-.9c-.2-.2-.2-.7-.5-.9-.2-.7-.7-1.1-1.1-1.4-1.4-.9-2.7-1.6-4.1-2.3-3.6-1.8-6.1-5.2-6.6-9.1-.2-.9-.7-1.8-1.4-2.3s-1.6-.7-2.5-.7c-.9.2-1.8.7-2.3,1.4-.5.5-.7,1.4-.7,2v.5c.7,6.4,4.5,11.6,10.2,14.3,5.4,2.5,10.2,6.4,13.8,11.1,1.6,2.3,4.1,3.4,6.8,3.4h21.3c1.6,0,2.7-1.1,2.7-2.7v-11.8c0-.7.5-1.1,1.1-1.1h6.4s-.5,1.6-.5,1.6c-.5,1.6.5,2.9,1.8,3.6,1.6.7,3.4,0,4.1-1.6,1.6-3.9,4.3-7.3,7.5-10,.5-.5.9-.7,1.1-1.1,2.5-3.2,2-7.7-1.1-10.2-3.4-2.7-5.9-6.1-7.5-10-.7-1.4-2-2.3-3.6-1.8-.7.2-1.4.7-1.8,1.4-.2.7-.5,1.6-.2,2.3l.5,1.6h-7c-.7,0-1.1-.5-1.1-1.1s0-2,.2-2.9c.2-1.1.2-2.5.2-3.6v-9.1c0-1.6-.9-2.7-2.5-2.7ZM659.2,626.5c-2.9,0-5.2-2.3-5.2-5.2s2.3-5.2,5.2-5.2h9.8c2.9,0,5.2,2.3,5.2,5.2s-2.3,5.2-5.2,5.2h-9.8ZM650.6,610.2c.9.5,1.6,1.4,1.8,2.3.5.9.2,2-.2,2.9,0,.2-.2.2-.2.5-1.1,1.4-1.8,3.4-1.8,5.2v19.3c0,1.4-1.1,2.7-2.5,2.7l-16.1,1.1h0c-1.4,0-2.5-.5-3.4-1.6-.7-.9-1.6-2-2.5-2.9-.5-.5-.7-1.1-.7-1.8h0c0-.7.5-1.4.9-1.8.9-.9,2-1.1,3.2-.5,1.6-.7,2.9-1.6,3.9-2.9,3.2-4.1,5.9-8.4,8.4-12.9l4.5-8.2c.5-.9,1.4-1.6,2.3-1.8,1.1-.2,2,0,2.5.5Z"/>
  </g>
  <g id="PVC_x5F_INSIDE1" data-name="PVC_x5F_INSIDE">
    <path class="st0" d="M208.2,442.6l-78,20.9c-8.8,2.5-15,10.4-15,19.5v407.1c0,2.3,1.8,4.1,4.1,4.1h25.6c.5,0,.9-.2,1.1-.2,2.3-.7,3.4-2.9,2.9-5l-2.3-8.8c0-.5-.2-.7-.7-.7h-10.4c-1.4,0-2.5-1.1-2.5-2.5v-25.6c0-1.4,1.1-2.5,2.5-2.5h47c1.4,0,2.5,1.1,2.5,2.5v27c0,.7-.5,1.1-1.1,1.1h-7c-.2,0-.7.2-.7.7l-2.3,8.8c-.2.5-.2.7-.2,1.1,0,2.3,1.8,4.1,4.1,4.1h44.9c.5,0,.9-.2,1.1-.2,2.3-.7,3.4-2.9,2.9-5l-2.3-8.8c0-.5-.2-.7-.7-.7h-5.9c-.7,0-1.1-.5-1.1-1.1v-27c0-1.4,1.1-2.5,2.5-2.5h39.2c1.4,0,2.5,1.1,2.5,2.5v27c0,.7-.5,1.1-1.1,1.1h-5.2c-.2,0-.7.2-.7.7l-2.3,8.8c-.7,2.5,1.4,5,3.9,5h57.6c.2,0,.7-.2.7-.7l3.4-12.9c0-.2,0-.7-.2-.7s-.5-.2-.7-.2h-7.7c-.7,0-1.1-.5-1.1-1.1v-23.8c0-3.2,2.5-5.7,5.7-5.7h212.1c3.2,0,5.7,2.5,5.7,5.7v23.8c0,.7-.5,1.1-1.1,1.1h-7.7c-.2,0-.5,0-.7.2s-.2.5-.2.7l3.4,12.9c0,.5.2.7.7.7h57.6c.5,0,.9-.2,1.1-.2,2.3-.7,3.6-2.9,2.9-5l-2.3-8.8c0-.5-.2-.7-.7-.7h-5.2c-.7,0-1.1-.5-1.1-1.1v-27c0-1.4,1.1-2.5,2.5-2.5h44.9c1.4,0,2.5,1.1,2.5,2.5v25.6c0,1.4-1.1,2.5-2.5,2.5h-10.4c-.2,0-.7.2-.7.7l-2.3,8.8c-.2.5-.2.7-.2,1.1,0,2.3,1.8,4.1,4.1,4.1h25.6c2.3,0,4.1-1.8,4.1-4.1v-279.4c0-4.1-3.2-7.3-7.3-7.3h-22.5c-.5,0-.7.2-1.1.2-1.1.2-2,.9-2.5,1.8-.7.9-.7,1.8-.5,2.9l2.3,8.8c0,.5.2.7.7.7h10.4c1.4,0,2.5,1.1,2.5,2.5v22.5c0,3.2-2.5,5.7-5.7,5.7h-40.6c-1.4,0-2.5-1.1-2.5-2.5v-8.2s8.2-29.3,8.2-29.3c.2-.5.2-.7.2-1.1,0-2.3-1.8-4.1-4.1-4.1h-22.5c-.7,0-1.4,0-2,.5-.9.7-1.6,1.4-1.8,2.5-.2.9,0,2,.5,2.9l6.6,11.6c.2.7,0,1.4-.5,1.6,0,.2-.2.2-.5.2h-187.4c-.7,0-1.1-.5-1.1-1.1v-28.4c0-1.6-1.1-2.7-2.7-2.7h-13.6c-2.3,0-4.1,1.8-4.1,4.1v6.4c0,.5.5.9.9.9h7c.7,0,1.1.5,1.1,1.1v18.6c0,.7-.5,1.1-1.1,1.1h-36.7c-.7,0-1.1-.5-1.1-1.1v-18.6c0-.7.5-1.1,1.1-1.1h7c.5,0,.9-.5.9-.9v-6.4c0-2.3-1.8-4.1-4.1-4.1h-18.8c-.9,0-1.8.5-2.5.9l-60.8,47.4c-.5.5-1.4.7-2,.5-8.6-2.3-16.6-6.1-23.6-11.6-3.2-2.5-5.4-5.9-6.6-9.8l-6.4-23.8c-.2-.5,0-.9.2-1.1l2.7-3.2c1.8-2,2.7-4.5,2.7-7v-91.4c0-2.3-1.8-4.1-4.1-4.1h-4.5c-.5,0-.9.5-.9.9v9.8c0,1.4-1.1,2.5-2.5,2.5h-.7c-.7,0-1.4-.2-1.8-.7l-20.6-20.6c-.5-.5-.7-1.1-.7-1.8v-9.8c0-1.1.7-2,1.8-2.3l22.9-6.1c.7,0,1.1.2,1.4.9v.2s0,5.7,0,5.7c0,.5.5.9.9.9h4.5c2.3,0,4.1-1.8,4.1-4.1v-16.1c0-.5-.2-.7-.2-1.1-.2-1.1-.9-2-1.8-2.5-.9-.7-2-.7-3.4-.2ZM580.9,701c-1.6,0-2.7-1.1-2.7-2.7v-33.3c0-1.6,1.1-2.7,2.7-2.7h3.9c1.6,0,2.7,1.1,2.7,2.7v4.5c0,1.4,1.1,2.5,2.5,2.5s2.5-1.1,2.5-2.5v-4.5c0-1.6,1.1-2.7,2.7-2.7h12.9c1.6,0,2.7,1.1,2.7,2.7v4.5c0,1.4,1.1,2.5,2.5,2.5s2.5-1.1,2.5-2.5v-4.5c0-1.6,1.1-2.7,2.7-2.7h6.4c1.6,0,2.7,1.1,2.7,2.7v33.3c0,1.6-1.1,2.7-2.7,2.7h-44ZM570.9,701.2h-28.1c-1.6,0-2.7-1.1-2.7-2.7v-59.2c0-1.6,1.1-2.7,2.7-2.7h18.6c1.6,0,2.7,1.1,2.7,2.7v6.4c0,5.9,2.9,11.3,8.2,14.3.9.5,1.4,1.4,1.4,2.3v36.1c0,1.6-1.1,2.7-2.7,2.7v.2ZM624.9,834.6h-43.8c-1.6,0-2.7-1.1-2.7-2.7v-124.8c0-1.6,1.1-2.7,2.7-2.7h43.8c1.6,0,2.7,1.1,2.7,2.7v.7c0,1.6-1.1,2.7-2.7,2.7h-1.4c-1.4,0-2.5,1.1-2.5,2.5s1.1,2.5,2.5,2.5h1.4c1.6,0,2.7,1.1,2.7,2.7v10.9c0,1.6-1.1,2.7-2.7,2.7h-1.4c-1.4,0-2.5,1.1-2.5,2.5s1.1,2.5,2.5,2.5h1.4c1.6,0,2.7,1.1,2.7,2.7v92.5c0,1.6-1.1,2.7-2.7,2.7v-.2ZM570.9,834.8h-28.4c-1.6,0-2.7-1.1-2.7-2.7v-124.8c0-1.6,1.1-2.7,2.7-2.7h28.4c1.6,0,2.7,1.1,2.7,2.7v124.8c0,1.6-1.1,2.7-2.7,2.7h0ZM365.9,834.3h-45.1c-1.6,0-2.7-1.1-2.7-2.7v-65.6c0-1.6,1.1-2.7,2.7-2.7h8.4c1.1,0,1.8-.7,1.8-1.8s-.9-1.8-1.8-1.8h-8.4c-1.6,0-2.7-1.1-2.7-2.7v-65.6c0-1.6,1.1-2.7,2.7-2.7h8.4c1.1,0,1.8-.7,1.8-1.8s-.9-1.8-1.8-1.8h-8.2c-1.6,0-2.7-1.1-2.7-2.7v-43.8c0-1.6,1.1-2.7,2.7-2.7h.2c.5,0,1.1,0,1.6,0h52.6c1.6,0,2.7,1.1,2.7,2.7v9.8c0,1.4,1.1,2.5,2.5,2.5s2.5-1.1,2.5-2.5v-9.8c0-1.6,1.1-2.7,2.7-2.7h87.3c1.6,0,2.7,1.1,2.7,2.7v9.8c0,1.4,1.1,2.5,2.5,2.5s2.5-1.1,2.5-2.5v-9.8c0-1.6,1.1-2.7,2.7-2.7h50.1c1.6,0,2.7,1.1,2.7,2.7v45.6c0,.5-.5.9-.9.9h-2c-1.1,0-1.8.7-1.8,1.8s.9,1.8,1.8,1.8h2c.5,0,.9.5.9.9v93.9c0,.5-.5.9-.9.9h-1.6c-1.1,0-1.8.9-1.8,1.8s.9,1.8,1.8,1.8h2c.5,0,.9.5.9.9v43.1c0,1.6-1.1,2.7-2.7,2.7h-40.6c-1.6,0-2.7-1.1-2.7-2.7v-3.2c0-1.4-1.1-2.5-2.5-2.5s-2.5,1.1-2.5,2.5v3.2c0,1.6-1.1,2.7-2.7,2.7h-106.8c-1.6,0-2.7-1.1-2.7-2.7v-3.2c0-1.4-1.1-2.5-2.5-2.5s-2.5,1.1-2.5,2.5v3.2c0,1.6-1.1,2.7-2.7,2.7v-.5ZM311.9,834.8h-34.7c-1.6,0-2.7-1.1-2.7-2.7v-197.1c0-.2,0-.5.2-.7l30.4-23.6c.7-.5,1.4-.7,2-.5s1.4.5,1.8,1.1c.5.5.7.9.7,1.6v10.2c0,3.9,1.6,7.7,4.8,10.2.2.2.2.5.2.7v198c0,1.6-1.1,2.7-2.7,2.7h0ZM268.1,834.6h-38.1c-1.6,0-2.7-1.1-2.7-2.7v-151.5q0-.2,0-.5l14.7-25.4c.7-.9,1.6-1.4,2.5-1.4,3.6.2,7.5-1.1,10.4-3.4l11.3-8.8c1.1-.9,2.9-.7,3.9.5.5.5.7.9.7,1.6v189.2c0,1.6-1.1,2.7-2.7,2.7v-.2ZM208.4,847.3c1.6,0,2.7,1.1,2.7,2.7v33.3c0,2.3-1.8,4.1-4.1,4.1h-12.9c-2.3,0-4.1-1.8-4.1-4.1v-33.3c0-1.6,1.1-2.7,2.7-2.7h15.7ZM297.8,847.3c1.6,0,2.7,1.1,2.7,2.7v33.3c0,2.3-1.8,4.1-4.1,4.1h-25.6c-2.3,0-4.1-1.8-4.1-4.1v-33.3c0-1.6,1.1-2.7,2.7-2.7h28.4ZM567.7,847.3c1.6,0,2.7,1.1,2.7,2.7v33.3c0,2.3-1.8,4.1-4.1,4.1h-25.6c-2.3,0-4.1-1.8-4.1-4.1v-33.3c0-1.6,1.1-2.7,2.7-2.7h28.4ZM187.6,737.9c1.6,0,2.7,1.1,2.7,2.7v91.4c0,1.6-1.1,2.7-2.7,2.7h-52.6c-1.6,0-2.7-1.1-2.7-2.7v-91.4c0-1.6,1.1-2.7,2.7-2.7h52.6ZM195.5,735.9l23.4-40.6c.7-1.1,2.3-1.6,3.6-.9.9.5,1.4,1.4,1.4,2.3v135.4c0,1.6-1.1,2.7-2.7,2.7h-23.1c-1.6,0-2.7-1.1-2.7-2.7v-95.9q0-.2.2-.2ZM134.7,660.8h.7s52.9,14.1,52.9,14.1c1.4.5,2.5.9,3.6,1.4l22.5,10.9c.7.5,1.1.9,1.4,1.6s0,1.4-.2,2v.2s-23.6,40.8-23.6,40.8c-.5.9-1.4,1.4-2.3,1.4h-54.7c-1.6,0-2.7-1.1-2.7-2.7v-67.1c0-1.6,1.4-2.7,2.5-2.5ZM136.8,479.8c.7.2,1.1.9,1.4,1.6l49.7,185.3c.2,1.6-.7,2.9-2,3.4-.5.2-.9.2-1.4,0l-50.1-13.4c-1.1-.5-2-1.6-2-2.7v-171.7c0-1.4.9-2.5,2-2.7l.5-.2c.7-.2,1.6,0,2,.5ZM162.8,472.8c.7.2,1.1.9,1.4,1.6v.7s0,1.8,0,1.8c0,4.5,1.6,8.6,4.8,11.8l20.6,20.6c2,2,4.8,3.6,7.7,4.3,1.1.5,2,1.4,2,2.7v63.7c0,.7-.2,1.4-.7,1.8l-1.1,1.4c-3.4,3.9-4.8,9.1-3.4,14.1l6.4,23.8c1.8,6.8,5.9,12.9,11.3,17.2,6.8,5.4,14.5,9.8,22.9,12.5.7.2,1.1.7,1.6,1.4s.5,1.4.2,2c0,.2-.2.2-.2.5l-16.3,28.4c-.7,1.4-2.3,1.8-3.6,1.1l-22.5-10.9c-.7-.5-1.1-1.1-1.4-1.8l-51.3-191v-.7c0-1.4.9-2.5,2-2.7l17.2-4.5c.9-.2,1.6-.2,2.3.2Z"/>
  </g>
  <g id="GASKET_x5F_INSIDE1" data-name="GASKET_x5F_INSIDE">
    <path class="st0" d="M471.5,786.6h-3.9c-2,0-3.9,1.1-4.5,3.2l-5.9,18.8c-.2.7-.2,1.6-.2,2.3,0,5.7-1.8,11.1-5.2,15.7h0l-12.7,29.5c-.5.7-1.4,1.4-2.3,1.4h-8.2c-.7,0-1.4-.2-1.8-.7-.9-.7-1.8-1.1-2.9-1.1h-5.4c-4.8,0-9.5,2.3-12.7,5.9-1.1,1.1-2.5,1.8-4.1,1.8s-2.7,1.1-2.7,2.7,1.1,2.7,2.7,2.7h6.1c3.9,0,7.7-.7,11.3-1.8.5-.2,1.1,0,1.4.7v.5s0,8.8,0,8.8h-.2c-.5,0-1.1.2-1.6.7-.7.5-1.1,1.1-1.1,1.8-.2.7,0,1.4.5,2l8.6,11.1,1.4,1.4c3.2,2.3,7.7,1.8,10.2-1.4l8.6-11.1c.5-.5.7-.9.7-1.6,0-1.6-1.1-2.7-2.7-2.7h-.2v-8.6c0-.7.5-1.1,1.1-1.1h.5c3.6,1.1,7.5,1.8,11.3,1.8h1.8c1.4,0,2.5-1.1,2.5-2.5h0c0-1.4-1.1-2.5-2.5-2.5s-2.9-.9-3.4-2.3c-.7-1.8-.9-3.6-.5-5.4l6.8-26.8,5.7-22.5c.7-2.7,1.8-5.4,3.2-7.9l2.9-5c.7-1.1.9-2.5.9-3.9,0-2.3-1.8-4.1-3.4-3.9ZM435.4,867.3c1.6,0,2.7,1.1,2.7,2.7v9.8c0,1.6-.7,3.2-1.6,4.5l-.9,1.1c-1.4,1.8-3.9,2-5.7.7l-.7-.7-.9-1.1c-1.1-1.4-1.6-2.9-1.6-4.5v-9.8c0-1.6,1.1-2.7,2.7-2.7h5.9Z"/>
    <path class="st0" d="M327,719.9c-6.8,2.3-13.6,3.6-20.6,3.6-1.6,0-2.7,1.1-2.7,2.7v12.2c0,.7.2,1.4.7,1.8s.7,1.1.7,1.8c-.2.7-.5,1.1-.9,1.6-.5.5-.9.7-1.6.7h-5.9c-.2,0-.5-.2-.5-.5l.5-1.4c.7-1.4,0-2.7-1.4-3.4s-2.9,0-3.6,1.4c-1.8,3.9-4.5,7.5-8.2,10-.7.5-1.1.9-1.6,1.6-.9,1.4-1.4,2.7-1.4,4.3v1.1c.5,2,1.4,3.6,2.9,4.8,3.6,2.5,6.4,5.9,8.2,10,.5,1.4,2,1.8,3.4,1.4,1.4-.7,2-2.3,1.6-3.6l-.5-1.1v-.5s0-.2.2-.2h7.3c.7,0,1.1.5,1.1,1.1s-.2.7-.5.9c-.7.5-.9,1.4-.9,2v28.4c0,1.4.9,2.7,2.3,3.2.7.2,1.6.2,2.5-.2.9-.5,1.6-1.1,1.8-2,.9-2.7,1.4-5.7,1.4-8.6v-36.3c0-1.4,1.1-2.5,2.5-2.5h.5c1.4.2,2.9-.2,3.9-1.4l5-6.1c.5-.7.7-1.4.7-2,0-1.4.9-2.5,2.3-2.7,1.1,0,2,.7,2.5,1.6,0,.7.5,1.1.9,1.4l9.5,6.4c2.3,1.6,5.2,1.8,7.5.5,1.6-.9,2.9-2.5,3.4-4.3s.2-3.9-.7-5.4c-3.9-7.5-8.8-14.3-14.7-20.4-1.8-2-5-2.7-7.5-1.6ZM299.5,750.8c3.2,0,5.7,2.5,5.7,5.7s-2.5,5.7-5.7,5.7h-8.4c-3.2,0-5.7-2.5-5.7-5.7,0-3.2,2.5-5.7,5.7-5.7h8.4ZM332,725.1c.9.9,1.8,1.8,2.5,2.7.5.2.7.9.7,1.4s0,.5.2.7c2.7,3.4,5.2,7,7.5,10.7,0,.2.2.5.5.5.5.2.9.7,1.1,1.1.2.9.7,1.6,1.1,2.3s.5,1.6.2,2.3-.7,1.4-1.4,1.8c-.9.5-2.3.5-3.2-.2l-12-8.2c-2-1.1-4.5-.9-5.9.9l-7,8.6c-.5.5-1.1.9-2,.9s-1.4,0-2,.2-1.4,0-2-.2l-1.6-2.5v-.5s1.1-9.1,1.1-9.1c.2-1.4.9-2.5,2.3-3.2l7.5-3.4c.7-.5,1.1-.9,1.4-1.6.5-2.5,2.3-4.3,4.8-5,1.1-.2,2.3-.5,3.2-.9,1.1-.2,2.3,0,3.2.7Z"/>
  </g>
</svg>