<?xml version="1.0" encoding="UTF-8"?>
<svg id="uuid-30a1909d-badc-4c83-a741-e77eba55426e" data-name="Layer 2" xmlns="http://www.w3.org/2000/svg" width="326.77" height="61.21" viewBox="0 0 326.77 61.21">
  <g id="uuid-7476da1f-5ada-4f69-8ffb-a61b18347bd4" data-name="Layer 1">
    <g>
      <path d="M0,61.21v-27.38h8.02l6.61,9.78,6.61-9.78h8.02v27.38h-7.24v-16.19l-7.35,10.72-7.43-10.72v16.19H0Z" style="fill: #1d1d1b;"/>
      <path d="M35.79,61.21l10.48-27.38h7.78l10.48,27.38h-7.67l-1.6-4.38h-10.21l-1.6,4.38h-7.67ZM47.41,50.46h5.52l-2.74-7.59-2.78,7.59Z" style="fill: #1d1d1b;"/>
      <path d="M71.07,61.21v-27.38h9.15c3,0,5.65.59,7.96,1.76,2.31,1.17,4.11,2.78,5.42,4.83,1.3,2.05,1.96,4.41,1.96,7.1s-.65,5.02-1.96,7.08c-1.3,2.06-3.11,3.68-5.42,4.85-2.31,1.17-4.96,1.76-7.96,1.76h-9.15ZM78.31,54.37h1.92c1.15,0,2.2-.17,3.17-.51.96-.34,1.8-.81,2.5-1.41.7-.6,1.25-1.32,1.64-2.15.39-.83.59-1.76.59-2.78s-.2-1.94-.59-2.78c-.39-.83-.94-1.55-1.64-2.15-.7-.6-1.54-1.07-2.5-1.41-.96-.34-2.02-.51-3.17-.51h-1.92v13.69Z" style="fill: #1d1d1b;"/>
      <path d="M102.8,61.21v-27.38h18.35v6.65h-11.11v3.79h9v6.45h-9v3.83h11.38v6.65h-18.62Z" style="fill: #1d1d1b;"/>
      <path d="M142.54,61.21v-27.38h7.24v27.38h-7.24Z" style="fill: #1d1d1b;"/>
      <path d="M158.38,61.21v-27.38h7.63l10.68,15.06v-15.06h7.24v27.38h-7.24l-11.07-15.61v15.61h-7.24Z" style="fill: #1d1d1b;"/>
      <path d="M205.44,61.21v-27.38h7.24v27.38h-7.24Z" style="fill: #1d1d1b;"/>
      <path d="M227.34,61.21v-20.73h-7.75v-6.65h22.69v6.65h-7.71v20.73h-7.24Z" style="fill: #1d1d1b;"/>
      <path d="M244.79,61.21l10.48-27.38h7.78l10.48,27.38h-7.67l-1.6-4.38h-10.21l-1.6,4.38h-7.67ZM256.4,50.46h5.51l-2.74-7.59-2.78,7.59Z" style="fill: #1d1d1b;"/>
      <path d="M280.07,61.21v-27.38h7.24v20.73h11.27v6.65h-18.5Z" style="fill: #1d1d1b;"/>
      <path d="M309.95,61.21v-11.62l-9.62-15.76h8.21l5.01,8.57,5.01-8.57h8.21l-9.58,15.72v11.66h-7.24Z" style="fill: #1d1d1b;"/>
    </g>
    <g>
      <rect x="0" width="108.92" height="17.8" style="fill: #009246;"/>
      <rect x="108.92" width="108.92" height="17.8" style="fill: #ededed;"/>
      <rect x="217.85" width="108.92" height="17.8" style="fill: #ce2c37;"/>
    </g>
  </g>
</svg>