<?xml version="1.0" encoding="UTF-8"?>
<svg id="Layer_2" data-name="Layer 2" xmlns="http://www.w3.org/2000/svg" viewBox="0 0 283.47 83.13">
  <defs>
    <style>
      .cls-1 {
        fill: #fff;
        stroke-width: 0px;
      }
    </style>
  </defs>
  <g id="Livello_1" data-name="Livello 1">
    <g>
      <g>
        <path class="cls-1" d="M55.17,32.69c0,5.85-3.29,8.43-9.5,8.43h-25.11l1.56-5.61h23.38c2.04,0,3.11-.56,3.11-2.82v-.62c0-2.26-1.07-2.82-3.11-2.82h-15.93c-6.21,0-9.5-2.58-9.5-8.43v-.26c0-5.85,3.29-8.42,9.5-8.42h24.3l-1.56,5.61h-22.58c-2.04,0-3.11.55-3.11,2.82v.26c0,2.26,1.07,2.82,3.11,2.82h15.93c6.21,0,9.5,2.58,9.5,8.42v.62Z"/>
        <path class="cls-1" d="M94.14,41.11h-22.79c-6.43,0-10-2.83-10-8.93v-11.12c0-6.09,3.58-8.92,10-8.92h22.62l-1.56,5.61h-20.89c-2.09,0-3.61.93-3.61,3.32v11.12c0,2.38,1.52,3.32,3.61,3.32h21.06l1.56,5.61Z"/>
        <polygon class="cls-1" points="128.73 28.85 106.52 28.85 106.52 41.11 99.96 41.11 99.96 12.14 106.52 12.14 106.52 23.34 128.73 23.34 128.73 12.14 135.3 12.14 135.3 41.11 128.73 41.11 128.73 28.85"/>
        <path class="cls-1" d="M219.65,41.11h-22.79c-6.43,0-10-2.83-10-8.93v-11.12c0-6.09,3.58-8.92,10-8.92h22.62l-1.56,5.61h-20.89c-2.09,0-3.62.93-3.62,3.32v11.12c0,2.38,1.53,3.32,3.62,3.32h21.06l1.56,5.61Z"/>
        <path class="cls-1" d="M142.97,32.19V12.14h6.56v20.05c0,2.38,1.52,3.32,3.61,3.32h16.52c2.09,0,3.61-.94,3.61-3.32V12.14h6.56v20.05c0,6.09-3.57,8.93-10.01,8.93h-16.86c-6.43,0-10-2.83-10-8.93"/>
        <path class="cls-1" d="M253.39,41.12h-19.14c-6.43,0-10-2.83-10-8.93v-11.12c0-6.09,3.58-8.92,10-8.92h19.14c6.43,0,10.01,2.83,10.01,8.92v11.12c0,6.09-3.58,8.93-10.01,8.93M256.84,32.19v-11.12c0-2.38-1.52-3.32-3.62-3.32h-18.8c-2.09,0-3.61.94-3.61,3.32v11.12c0,2.38,1.52,3.32,3.61,3.32h18.8c2.09,0,3.62-.94,3.62-3.32"/>
        <polygon class="cls-1" points="156.47 0 166.34 0 164.26 7.98 158.54 7.98 156.47 0"/>
        <polygon class="cls-1" points="169.96 0 178.37 0 173.28 7.98 167.33 7.98 169.96 0"/>
        <polygon class="cls-1" points="144.44 0 152.84 0 155.47 7.98 149.53 7.98 144.44 0"/>
      </g>
      <rect class="cls-1" y="55.61" width="283.47" height="1.23"/>
      <g>
        <path class="cls-1" d="M78.77,74.84c0,.7-.18,1.33-.54,1.86-.36.54-.88.94-1.54,1.19-.55.21-1.42.32-2.59.32h-1.7v4.74h-1.98v-11.57h3.92c1.35,0,2.35.21,2.99.62.96.63,1.44,1.57,1.44,2.83ZM76.72,74.73c0-.73-.25-1.24-.75-1.54-.39-.23-.99-.35-1.79-.35h-1.78v3.92h1.46c.89,0,1.55-.12,1.98-.35.59-.32.88-.88.88-1.68Z"/>
        <path class="cls-1" d="M93.58,71.39l-4.35,11.57h-2.29l-4.34-11.57h2.16l3.41,9.73,3.44-9.73h1.97Z"/>
        <path class="cls-1" d="M107.45,79.61c-.11,1.21-.61,2.12-1.52,2.74-.79.52-1.78.78-2.98.78-1.75,0-3.08-.55-3.98-1.66-.84-1.03-1.26-2.44-1.26-4.21s.43-3.17,1.28-4.27c.94-1.21,2.26-1.81,3.97-1.81,1.16,0,2.13.27,2.91.8.9.61,1.36,1.48,1.39,2.61h-2.05c-.06-.6-.31-1.06-.75-1.39-.39-.31-.9-.46-1.52-.46-1.11,0-1.94.5-2.5,1.49-.45.81-.67,1.82-.67,3.04s.23,2.19.69,2.96c.57.95,1.41,1.42,2.53,1.42.63,0,1.16-.17,1.6-.5.49-.37.75-.89.78-1.54h2.08Z"/>
        <path class="cls-1" d="M129.45,74.84c0,.7-.18,1.33-.54,1.86-.36.54-.88.94-1.54,1.19-.55.21-1.42.32-2.59.32h-1.7v4.74h-1.98v-11.57h3.92c1.35,0,2.35.21,2.99.62.96.63,1.44,1.57,1.44,2.83ZM127.4,74.73c0-.73-.25-1.24-.75-1.54-.39-.23-.99-.35-1.79-.35h-1.78v3.92h1.46c.89,0,1.55-.12,1.98-.35.59-.32.88-.88.88-1.68Z"/>
        <path class="cls-1" d="M144,82.95h-2.22l-1.1-2.88h-5.36l-1.09,2.88h-1.98l4.72-11.57h2.19l4.85,11.57ZM140.11,78.67l-2.16-5.7-2.1,5.7h4.26Z"/>
        <path class="cls-1" d="M157.48,82.95h-2.03c-.16-.53-.31-1.5-.45-2.91-.09-.87-.22-1.44-.42-1.7-.26-.35-.79-.53-1.6-.53h-2.19v5.14h-1.98v-11.57h4.38c2.75,0,4.13.96,4.13,2.88,0,1.44-.78,2.36-2.34,2.77.67.12,1.14.39,1.41.83.2.33.34.89.4,1.68.13,1.47.36,2.61.69,3.41ZM155.36,74.55c0-1.14-.86-1.71-2.59-1.71h-1.97v3.57h1.66c.88,0,1.53-.1,1.95-.29.63-.29.94-.81.94-1.57Z"/>
        <path class="cls-1" d="M170.92,72.87h-3.65v10.08h-1.98v-10.08h-3.65v-1.49h9.28v1.49Z"/>
        <path class="cls-1" d="M185.4,82.95h-2.72l-5.12-9.68v9.68h-1.76v-11.57h2.72l5.12,9.68v-9.68h1.76v11.57Z"/>
        <path class="cls-1" d="M199.32,82.95h-7.7v-11.57h7.49v1.47h-5.54v3.44h5.28v1.46h-5.28v3.73h5.74v1.47Z"/>
        <path class="cls-1" d="M213.53,82.95h-2.03c-.16-.53-.31-1.5-.45-2.91-.09-.87-.22-1.44-.42-1.7-.26-.35-.79-.53-1.6-.53h-2.19v5.14h-1.98v-11.57h4.38c2.75,0,4.13.96,4.13,2.88,0,1.44-.78,2.36-2.34,2.77.67.12,1.14.39,1.41.83.2.33.34.89.4,1.68.13,1.47.36,2.61.69,3.41ZM211.4,74.55c0-1.14-.86-1.71-2.59-1.71h-1.97v3.57h1.66c.88,0,1.53-.1,1.95-.29.63-.29.94-.81.94-1.57Z"/>
      </g>
    </g>
  </g>
</svg>