<?xml version="1.0" encoding="UTF-8"?>
<svg id="Layer_2" xmlns="http://www.w3.org/2000/svg" version="1.1" viewBox="0 0 3401.2 973.4">
  <!-- Generator: Adobe Illustrator 29.5.0, SVG Export Plug-In . SVG Version: 2.1.0 Build 137)  -->
  <defs>
    <style>
      .st0 {
        fill: #77b82d;
      }

      .st1 {
        fill: #fff;
        stroke: #000;
        stroke-miterlimit: 10;
        stroke-width: 2px;
      }

      .st2 {
        fill: #333;
      }
    </style>
  </defs>
  <g id="Livello_1">
    <g>
      <g>
        <g>
          <path class="st2" d="M383.7,310.3h-14.9v-89.3c6.2-.6,12.7-1.2,19.6-1.2,26.5,0,36.3,8.9,36.3,28.1s-10.9,29.5-30.3,29.5h-10.7v33h0ZM383.7,264.4h11.8c9.1,0,14.5-5.6,14.5-16s-4.7-14.1-16.9-14.1-6,.1-9.3.5v29.6h0Z"/>
          <path class="st2" d="M468.8,220.2l32.8,90.2h-15.8l-7.7-22.2h-35.8l-7.7,22.2h-15.6l33-90.2h16.8ZM447.1,274.3h26.1l-13.1-37.6-13,37.6Z"/>
          <path class="st2" d="M584.8,265.4c0,31.1-16.2,46.6-41.2,46.6s-41.4-15.4-41.4-46.7,16.2-46.4,41.3-46.4,41.3,15.2,41.3,46.6h0ZM517.3,265.4c0,24.3,11,32.7,26.2,32.7s26.2-8.7,26.2-32.8-11.1-32.7-26.3-32.7-26.1,8.6-26.1,32.8h0Z"/>
          <path class="st2" d="M613.7,220.2v76h33.2v14.2h-48.3v-90.2h15.1Z"/>
          <path class="st2" d="M669.9,220.2v61.9c0,10.9,7.5,15.7,17.3,15.7s17.5-4.9,17.5-15.7v-61.9h14.8v63.2c0,18.5-14.6,28.5-32.5,28.5s-32.2-9.6-32.2-28.5v-63.2h15.1Z"/>
          <path class="st2" d="M797,237.1c-6.7-3.3-15.7-4.5-22.1-4.5-15.9,0-28.1,8.8-28.1,32.8s12.4,32.7,27.6,32.7,15.9-1.5,22.1-4.9l4.7,13.5c-7.5,3.3-19.7,5.3-28.3,5.3-24,0-40.9-15.6-40.9-46.6s16.4-46.6,41.2-46.6,20.6,1.7,28.1,5l-4.2,13.2h0Z"/>
          <path class="st2" d="M871.6,237.1c-6.7-3.3-15.7-4.5-22.1-4.5-15.9,0-28.1,8.8-28.1,32.8s12.4,32.7,27.6,32.7,15.9-1.5,22.1-4.9l4.7,13.5c-7.5,3.3-19.7,5.3-28.3,5.3-24,0-40.9-15.6-40.9-46.6s16.4-46.6,41.2-46.6,20.6,1.7,28.1,5l-4.2,13.2h0Z"/>
          <path class="st2" d="M903.7,220.2v90.2h-15.2v-90.2h15.2Z"/>
        </g>
        <g>
          <rect class="st2" x="368.2" y="340.9" width="3.5" height="50.7"/>
          <polygon class="st2" points="444.6 385.7 409.1 341.1 408.9 340.9 406.3 340.9 406.3 391.6 409.8 391.6 409.8 347.6 444.8 391.4 445 391.6 448.1 391.6 448.1 340.9 444.6 340.9 444.6 385.7"/>
          <polygon class="st2" points="482.8 391.6 486.3 391.6 486.3 367.3 511.5 367.3 511.5 364.1 486.3 364.1 486.3 344.2 516 344.2 516 340.9 482.8 340.9 482.8 391.6"/>
          <rect class="st2" x="546.8" y="340.9" width="3.5" height="50.7"/>
          <path class="st2" d="M613.9,369c-1.6-1-3.5-1.9-5.7-2.5-2.2-.7-4.7-1.3-7.4-1.8-2.6-.6-4.9-1.1-6.8-1.6-1.8-.5-3.4-1.2-4.5-1.9-1.1-.7-2-1.6-2.5-2.7-.5-1.1-.8-2.4-.8-4,0-3.2,1.1-5.7,3.4-7.6,2.3-1.9,6-2.9,11.1-2.9s5.4.4,7.5,1.2c2.1.8,4.1,2.2,5.8,4.1l.4.5,2-2.7-.3-.3c-2-2.1-4.3-3.6-6.8-4.6-2.5-1-5.4-1.4-8.6-1.4s-5.1.3-7.3.9c-2.2.6-4.1,1.5-5.7,2.7-1.6,1.2-2.8,2.7-3.7,4.5-.9,1.8-1.3,3.8-1.3,6.1s.4,3.9,1.1,5.4c.8,1.4,1.9,2.6,3.4,3.6,1.5,1,3.3,1.8,5.4,2.4,2.1.6,4.5,1.2,7.2,1.8,2.7.6,5.1,1.1,7.1,1.8,2,.6,3.6,1.3,4.9,2.2,1.2.8,2.2,1.8,2.8,2.9.6,1.2.9,2.6.9,4.3,0,3.3-1.2,5.7-3.8,7.3-2.6,1.6-6.2,2.5-10.7,2.5s-7-.6-9.9-1.8c-2.9-1.2-5.5-2.9-7.8-5.3l-.4-.4-2.2,2.6.4.3c2.7,2.6,5.8,4.6,9,5.8,3.2,1.3,6.9,1.9,10.9,1.9s5.2-.3,7.4-.8c2.2-.5,4.1-1.4,5.7-2.5,1.6-1.1,2.8-2.5,3.7-4.2.9-1.7,1.3-3.6,1.3-5.8s-.4-4.2-1.3-5.8c-.9-1.6-2.1-2.9-3.7-3.9h0Z"/>
          <path class="st2" d="M678.3,369c-1.6-1-3.5-1.9-5.7-2.5-2.2-.7-4.7-1.3-7.4-1.8-2.6-.6-4.9-1.1-6.8-1.6-1.8-.5-3.4-1.2-4.5-1.9-1.1-.7-2-1.6-2.5-2.7-.5-1.1-.8-2.4-.8-4,0-3.2,1.1-5.7,3.4-7.6,2.3-1.9,6-2.9,11.1-2.9s5.4.4,7.5,1.2c2.1.8,4.1,2.2,5.8,4.1l.4.5,2-2.7-.3-.3c-2-2.1-4.3-3.6-6.8-4.6-2.5-1-5.4-1.4-8.6-1.4s-5.1.3-7.3.9c-2.2.6-4.1,1.5-5.7,2.7-1.6,1.2-2.8,2.7-3.7,4.5-.9,1.8-1.3,3.8-1.3,6.1s.4,3.9,1.1,5.4c.8,1.4,1.9,2.6,3.4,3.6,1.5,1,3.3,1.8,5.4,2.4,2.1.6,4.5,1.2,7.2,1.8,2.7.6,5.1,1.1,7.1,1.8,2,.6,3.6,1.3,4.9,2.2,1.2.8,2.2,1.8,2.8,2.9.6,1.2.9,2.6.9,4.3,0,3.3-1.2,5.7-3.8,7.3-2.6,1.6-6.2,2.5-10.7,2.5s-7-.6-9.9-1.8c-2.9-1.2-5.5-2.9-7.8-5.3l-.4-.4-2.2,2.6.4.3c2.7,2.6,5.8,4.6,9,5.8,3.2,1.3,6.9,1.9,10.9,1.9s5.2-.3,7.4-.8c2.2-.5,4.1-1.4,5.7-2.5,1.6-1.1,2.8-2.5,3.7-4.2.9-1.7,1.3-3.6,1.3-5.8s-.4-4.2-1.3-5.8c-.9-1.6-2.1-2.9-3.7-3.9h0Z"/>
          <rect class="st2" x="713.8" y="340.9" width="3.5" height="50.7"/>
        </g>
      </g>
      <g>
        <polygon class="st0" points="331.6 405.9 242.9 405.9 242.9 381.6 307.4 381.6 307.4 231.8 202.5 273.4 202.5 405.5 178.3 405.5 178.3 259.2 331.6 198.3 331.6 405.9"/>
        <polygon class="st0" points="268 292 243.2 301.2 243.2 340.9 268 343.6 268 292"/>
      </g>
    </g>
  </g>
  <line class="st1" x1="178.3" y1="517.2" x2="3198" y2="517.2"/>
  <path d="M243.2,600.2c-34.9,0-63.4,28.5-63.4,63.5s23.2,58,53.5,62.8v-44.4h-16.1v-18.4h16.1v-14c0-15.9,9.4-24.7,24-24.7s14.1,1.2,14.1,1.2v15.7h-8c-7.9,0-10.3,4.9-10.3,9.9v11.9h17.6l-2.9,18.4h-14.8v44.4c15-2.3,28.5-10,38.4-21.5,9.8-11.5,15.2-26.1,15.2-41.3,0-35.1-28.5-63.5-63.4-63.5Z"/>
</svg>