<?xml version="1.0" encoding="UTF-8"?>
<svg id="Layer_2" xmlns="http://www.w3.org/2000/svg" version="1.1" viewBox="0 0 3401.2 973.4">
  <!-- Generator: Adobe Illustrator 29.5.0, SVG Export Plug-In . SVG Version: 2.1.0 Build 137)  -->
  <defs>
    <style>
      .st0 {
        fill: #77b82d;
      }

      .st1 {
        fill: #333;
      }
    </style>
  </defs>
  <g id="Livello_1">
    <g>
      <g>
        <g>
          <path class="st1" d="M967.9,520.5h-69.2V105.5c28.8-2.8,59-5.6,91.1-5.6,123.1,0,168.7,41.4,168.7,130.6s-50.7,137.1-140.8,137.1h-49.7v153.4h0v-.5ZM967.9,307.2h54.8c42.3,0,67.4-26,67.4-74.4s-21.8-65.5-78.5-65.5-27.9.5-43.2,2.3v137.6h-.5Z"/>
          <path class="st1" d="M1363.3,101.8l152.4,419.2h-73.4l-35.8-103.2h-166.4l-35.8,103.2h-72.5l153.4-419.2h78.1ZM1262.5,353.2h121.3l-60.9-174.7-60.4,174.7Z"/>
          <path class="st1" d="M1902.4,311.8c0,144.5-75.3,216.6-191.5,216.6s-192.4-71.6-192.4-217,75.3-215.6,191.9-215.6,191.9,70.6,191.9,216.6h0v-.5ZM1588.7,311.8c0,112.9,51.1,152,121.8,152s121.8-40.4,121.8-152.4-51.6-152-122.2-152-121.3,40-121.3,152.4h0Z"/>
          <path class="st1" d="M2036.7,101.8v353.2h154.3v66h-224.5V101.8h70.2Z"/>
          <path class="st1" d="M2297.9,101.8v287.6c0,50.7,34.9,73,80.4,73s81.3-22.8,81.3-73V101.8h68.8v293.7c0,86-67.8,132.4-151,132.4s-149.6-44.6-149.6-132.4V101.8h70.2Z"/>
          <path class="st1" d="M2888.5,180.3c-31.1-15.3-73-20.9-102.7-20.9-73.9,0-130.6,40.9-130.6,152.4s57.6,152,128.3,152,73.9-7,102.7-22.8l21.8,62.7c-34.9,15.3-91.5,24.6-131.5,24.6-111.5,0-190.1-72.5-190.1-216.6s76.2-216.6,191.5-216.6,95.7,7.9,130.6,23.2l-19.5,61.3h0l-.5.5Z"/>
          <path class="st1" d="M3235.2,180.3c-31.1-15.3-73-20.9-102.7-20.9-73.9,0-130.6,40.9-130.6,152.4s57.6,152,128.3,152,73.9-7,102.7-22.8l21.8,62.7c-34.9,15.3-91.5,24.6-131.5,24.6-111.5,0-190.1-72.5-190.1-216.6s76.2-216.6,191.5-216.6,95.7,7.9,130.6,23.2l-19.5,61.3h0l-.5.5Z"/>
          <path class="st1" d="M3384.3,101.8v419.2h-70.6V101.8h70.6Z"/>
        </g>
        <g>
          <rect class="st1" x="895.9" y="662.7" width="16.3" height="235.6"/>
          <polygon class="st1" points="1250.9 870.8 1085.9 663.6 1085 662.7 1072.9 662.7 1072.9 898.3 1089.2 898.3 1089.2 693.8 1251.8 897.3 1252.8 898.3 1267.2 898.3 1267.2 662.7 1250.9 662.7 1250.9 870.8"/>
          <polygon class="st1" points="1428.4 898.3 1444.7 898.3 1444.7 785.3 1561.8 785.3 1561.8 770.5 1444.7 770.5 1444.7 678 1582.7 678 1582.7 662.7 1428.4 662.7 1428.4 898.3"/>
          <rect class="st1" x="1725.8" y="662.7" width="16.3" height="235.6"/>
          <path class="st1" d="M2037.6,793.2c-7.4-4.6-16.3-8.8-26.5-11.6-10.2-3.3-21.8-6-34.4-8.4-12.1-2.8-22.8-5.1-31.6-7.4-8.4-2.3-15.8-5.6-20.9-8.8-5.1-3.3-9.3-7.4-11.6-12.5-2.3-5.1-3.7-11.2-3.7-18.6,0-14.9,5.1-26.5,15.8-35.3,10.7-8.8,27.9-13.5,51.6-13.5s25.1,1.9,34.9,5.6c9.8,3.7,19.1,10.2,27,19.1l1.9,2.3,9.3-12.5-1.4-1.4c-9.3-9.8-20-16.7-31.6-21.4-11.6-4.6-25.1-6.5-40-6.5s-23.7,1.4-33.9,4.2c-10.2,2.8-19.1,7-26.5,12.5-7.4,5.6-13,12.5-17.2,20.9-4.2,8.4-6,17.7-6,28.3s1.9,18.1,5.1,25.1c3.7,6.5,8.8,12.1,15.8,16.7s15.3,8.4,25.1,11.2c9.8,2.8,20.9,5.6,33.5,8.4,12.5,2.8,23.7,5.1,33,8.4,9.3,2.8,16.7,6,22.8,10.2,5.6,3.7,10.2,8.4,13,13.5,2.8,5.6,4.2,12.1,4.2,20,0,15.3-5.6,26.5-17.7,33.9-12.1,7.4-28.8,11.6-49.7,11.6s-32.5-2.8-46-8.4c-13.5-5.6-25.6-13.5-36.2-24.6l-1.9-1.9-10.2,12.1,1.9,1.4c12.5,12.1,27,21.4,41.8,27,14.9,6,32.1,8.8,50.7,8.8s24.2-1.4,34.4-3.7c10.2-2.3,19.1-6.5,26.5-11.6,7.4-5.1,13-11.6,17.2-19.5,4.2-7.9,6-16.7,6-27s-1.9-19.5-6-27c-4.2-7.4-9.8-13.5-17.2-18.1h0l-.9-1.4Z"/>
          <path class="st1" d="M2336.9,793.2c-7.4-4.6-16.3-8.8-26.5-11.6-10.2-3.3-21.8-6-34.4-8.4-12.1-2.8-22.8-5.1-31.6-7.4-8.4-2.3-15.8-5.6-20.9-8.8-5.1-3.3-9.3-7.4-11.6-12.5s-3.7-11.2-3.7-18.6c0-14.9,5.1-26.5,15.8-35.3,10.7-8.8,27.9-13.5,51.6-13.5s25.1,1.9,34.9,5.6c9.8,3.7,19.1,10.2,27,19.1l1.9,2.3,9.3-12.5-1.4-1.4c-9.3-9.8-20-16.7-31.6-21.4-11.6-4.6-25.1-6.5-40-6.5s-23.7,1.4-33.9,4.2c-10.2,2.8-19.1,7-26.5,12.5-7.4,5.6-13,12.5-17.2,20.9-4.2,8.4-6,17.7-6,28.3s1.9,18.1,5.1,25.1c3.7,6.5,8.8,12.1,15.8,16.7,7,4.6,15.3,8.4,25.1,11.2,9.8,2.8,20.9,5.6,33.5,8.4,12.5,2.8,23.7,5.1,33,8.4,9.3,2.8,16.7,6,22.8,10.2,5.6,3.7,10.2,8.4,13,13.5,2.8,5.6,4.2,12.1,4.2,20,0,15.3-5.6,26.5-17.7,33.9-12.1,7.4-28.8,11.6-49.7,11.6s-32.5-2.8-46-8.4c-13.5-5.6-25.6-13.5-36.2-24.6l-1.9-1.9-10.2,12.1,1.9,1.4c12.5,12.1,27,21.4,41.8,27,14.9,6,32.1,8.8,50.7,8.8s24.2-1.4,34.4-3.7c10.2-2.3,19.1-6.5,26.5-11.6,7.4-5.1,13-11.6,17.2-19.5s6-16.7,6-27-1.9-19.5-6-27c-4.2-7.4-9.8-13.5-17.2-18.1h0l-.9-1.4Z"/>
          <rect class="st1" x="2501.9" y="662.7" width="16.3" height="235.6"/>
        </g>
      </g>
      <g>
        <polygon class="st0" points="725.8 964.7 313.6 964.7 313.6 851.8 613.3 851.8 613.3 155.7 125.9 349 125.9 962.9 13.4 962.9 13.4 283 725.8 0 725.8 964.7"/>
        <polygon class="st0" points="430.2 435.4 315 478.2 315 662.7 430.2 675.2 430.2 435.4"/>
      </g>
    </g>
  </g>
</svg>