<?xml version="1.0" encoding="UTF-8"?>
<svg id="Layer_2" xmlns="http://www.w3.org/2000/svg" version="1.1" viewBox="0 0 3401.2 973.4">
  <!-- Generator: Adobe Illustrator 29.5.0, SVG Export Plug-In . SVG Version: 2.1.0 Build 137)  -->
  <defs>
    <style>
      .st0 {
        fill: #77b82d;
      }

      .st1 {
        fill: #fff;
      }
    </style>
  </defs>
  <g id="Livello_1">
    <g>
      <g>
        <g>
          <path class="st1" d="M963.1,525.3h-70.1V106.6c29.3-2.9,59.7-5.7,91.9-5.7,124.1,0,170,41.9,170,131.5s-51.1,138.4-141.9,138.4h-50v154.5h0ZM963.1,310h55.1c42.5,0,67.8-26.4,67.8-75.2s-21.8-66.1-79.3-66.1-28.1.6-43.7,2.3v139h0Z"/>
          <path class="st1" d="M1362.2,102.6l153.9,422.8h-74.1l-36.2-104h-167.7l-36.2,104h-72.9l154.5-422.8h78.7ZM1260.6,356.5h122.3l-61.5-176.3-60.9,176.3Z"/>
          <path class="st1" d="M1906.2,314.5c0,145.9-75.8,218.3-193,218.3s-194.1-72.4-194.1-218.8,75.8-217.7,193.6-217.7,193.6,71.2,193.6,218.3h0ZM1589.7,314.5c0,113.7,51.7,153.4,122.9,153.4s122.9-40.8,122.9-153.9-52.3-153.4-123.5-153.4-122.3,40.2-122.3,153.9h0Z"/>
          <path class="st1" d="M2041.7,102.6v356.1h155.7v66.6h-226.3V102.6h70.7Z"/>
          <path class="st1" d="M2305.3,102.6v290.1c0,51.1,35,73.5,81,73.5s82.1-23,82.1-73.5V102.6h69.5v296.4c0,86.7-68.4,133.8-152.2,133.8s-151.1-44.8-151.1-133.8V102.6h70.7Z"/>
          <path class="st1" d="M2900.9,181.9c-31.6-15.5-73.5-21.2-103.4-21.2-74.7,0-131.5,41.3-131.5,153.9s58,153.4,129.2,153.4,74.7-6.9,103.4-23l21.8,63.2c-35,15.5-92.5,24.7-132.7,24.7-112.6,0-191.8-73-191.8-218.3s77-218.3,193-218.3,96.5,8,131.5,23.6l-19.5,62h0Z"/>
          <path class="st1" d="M3250.7,181.9c-31.6-15.5-73.5-21.2-103.4-21.2-74.7,0-131.5,41.3-131.5,153.9s58,153.4,129.2,153.4,74.7-6.9,103.4-23l21.8,63.2c-35,15.5-92.5,24.7-132.7,24.7-112.6,0-191.8-73-191.8-218.3s77-218.3,193-218.3,96.5,8,131.5,23.6l-19.5,62h0Z"/>
          <path class="st1" d="M3401.2,102.6v422.8h-71.2V102.6h71.2Z"/>
        </g>
        <g>
          <rect class="st1" x="890.5" y="668.7" width="16.5" height="237.6"/>
          <polygon class="st1" points="1248.9 878.6 1082.3 669.6 1081.6 668.7 1069.3 668.7 1069.3 906.3 1085.8 906.3 1085.8 700 1249.7 905.3 1250.5 906.3 1265.3 906.3 1265.3 668.7 1248.9 668.7 1248.9 878.6"/>
          <polygon class="st1" points="1427.7 906.3 1444.2 906.3 1444.2 792.6 1562.5 792.6 1562.5 777.5 1444.2 777.5 1444.2 684.2 1583.4 684.2 1583.4 668.7 1427.7 668.7 1427.7 906.3"/>
          <rect class="st1" x="1728.1" y="668.7" width="16.5" height="237.6"/>
          <path class="st1" d="M2042.6,800.3c-7.4-4.8-16.4-8.8-26.9-11.9-10.2-3.1-21.9-5.9-34.6-8.6-12.3-2.6-23.1-5.2-31.9-7.7-8.7-2.4-15.8-5.5-21.3-9-5.3-3.5-9.2-7.7-11.8-12.7-2.5-5-3.8-11.2-3.8-18.7,0-15.1,5.2-26.8,15.8-35.8,10.6-9,28.2-13.5,52.1-13.5s25.2,1.9,35.2,5.6c9.8,3.7,19,10.1,27.2,19.2l2.1,2.3,9.3-12.7-1.5-1.5c-9.6-9.8-20.4-17.1-32-21.5-11.6-4.5-25.2-6.7-40.5-6.7s-23.9,1.5-34.1,4.4c-10.3,2.9-19.2,7.2-26.5,12.7-7.4,5.6-13.2,12.6-17.3,20.9-4.1,8.3-6.2,17.9-6.2,28.5s1.8,18.4,5.4,25.1c3.6,6.7,8.9,12.4,15.9,17,6.8,4.5,15.3,8.2,25.2,11.1,9.8,2.8,21.1,5.6,33.8,8.2,12.7,2.6,23.9,5.4,33.3,8.3,9.2,2.9,16.9,6.3,23,10.2,5.8,3.8,10.2,8.4,13.1,13.8,2.9,5.4,4.3,12.1,4.3,20,0,15.6-5.8,26.9-17.7,34.4-12.1,7.7-29,11.6-50.3,11.6s-33-2.8-46.6-8.3c-13.6-5.5-25.9-13.8-36.5-24.7l-1.9-2-10.2,12.1,1.7,1.6c12.8,12.2,27,21.3,42.1,27.2,15.1,5.9,32.2,8.9,51,8.9s24.2-1.3,34.5-3.8c10.4-2.6,19.4-6.5,26.9-11.7,7.5-5.2,13.3-11.8,17.3-19.6,4-7.7,6-16.8,6-27s-2.1-19.8-6.2-27.1c-4.1-7.3-10-13.5-17.5-18.4h0Z"/>
          <path class="st1" d="M2344.6,800.3c-7.4-4.8-16.4-8.8-26.9-11.9-10.2-3.1-21.9-5.9-34.6-8.6-12.3-2.6-23.1-5.2-31.9-7.7-8.7-2.4-15.8-5.5-21.3-9-5.3-3.5-9.2-7.7-11.8-12.7-2.5-5-3.8-11.2-3.8-18.7,0-15.1,5.2-26.8,15.8-35.8,10.6-9,28.2-13.5,52.1-13.5s25.2,1.9,35.2,5.6c9.8,3.7,19,10.1,27.2,19.2l2.1,2.3,9.3-12.7-1.5-1.5c-9.6-9.8-20.4-17.1-32-21.5-11.6-4.5-25.2-6.7-40.5-6.7s-23.9,1.5-34.1,4.4c-10.3,2.9-19.2,7.2-26.5,12.7-7.4,5.6-13.2,12.6-17.3,20.9-4.1,8.3-6.2,17.9-6.2,28.5s1.8,18.4,5.4,25.1c3.6,6.7,8.9,12.4,15.9,17,6.8,4.5,15.3,8.2,25.2,11.1,9.8,2.8,21.1,5.6,33.8,8.2,12.7,2.6,23.9,5.4,33.3,8.3,9.2,2.9,16.9,6.3,23,10.2,5.8,3.8,10.2,8.4,13.1,13.8,2.9,5.4,4.3,12.1,4.3,20,0,15.6-5.8,26.9-17.7,34.4-12.1,7.7-29,11.6-50.3,11.6s-33-2.8-46.6-8.3c-13.6-5.5-25.9-13.8-36.5-24.7l-1.9-2-10.2,12.1,1.7,1.6c12.9,12.2,27,21.3,42.1,27.2,15.1,5.9,32.2,8.9,51,8.9s24.2-1.3,34.5-3.8c10.4-2.6,19.4-6.5,26.9-11.7,7.5-5.2,13.3-11.8,17.3-19.6,4-7.7,6-16.8,6-27s-2.1-19.8-6.2-27.1c-4.1-7.3-10-13.5-17.5-18.4h0Z"/>
          <rect class="st1" x="2511.1" y="668.7" width="16.5" height="237.6"/>
        </g>
      </g>
      <g>
        <polygon class="st0" points="719.1 973.4 303.2 973.4 303.2 859.7 605.3 859.7 605.3 157.4 113.7 352 113.7 971.6 0 971.6 0 285.6 719.1 0 719.1 973.4"/>
        <polygon class="st0" points="420.5 439.6 304.5 482.7 304.5 668.9 420.5 681.3 420.5 439.6"/>
      </g>
    </g>
  </g>
</svg>