<?xml version="1.0" encoding="UTF-8"?>
<svg id="Layer_2" data-name="Layer 2" xmlns="http://www.w3.org/2000/svg" viewBox="0 0 153.44 22.03">
  <defs>
    <style>
      .cls-1, .cls-2 {
        fill-rule: evenodd;
      }

      .cls-1, .cls-2, .cls-3 {
        stroke-width: 0px;
      }

      .cls-1, .cls-3 {
        fill: #6d6e71;
      }

      .cls-2 {
        fill: #ed1c24;
      }

      .cls-4 {
        fill: none;
        stroke: #6d6e71;
        stroke-miterlimit: 10;
        stroke-width: .48px;
      }
    </style>
  </defs>
  <g id="Layer_1-2" data-name="Layer 1">
    <g>
      <g>
        <path class="cls-3" d="m9.55,10.64h-.17l-2.9-.02v-1.5l2.92.02h.22l.22-.02.17-.02.19-.04.15-.04.15-.06.12-.06.1-.08.1-.08.1-.1.07-.1.05-.12.05-.12.02-.14.02-.16v-3.78l-.02-.12-.05-.1-.07-.1-.1-.1-.1-.08-.12-.1-.17-.08-.07-.02-.07-.04-.07-.02-.07-.02-.07-.02-.07-.02-.1-.02-.07-.02-.07-.02h-.1l-.07-.02h-.1l-.1-.02h-.27l-2.7-.02v-1.5l2.63.02h.17l.17.02h.17l.17.02.17.02.17.04.17.02.15.04.15.04.17.04.15.04.15.06.15.06.12.06.15.06.12.08.17.08.12.1.15.08.12.1.1.1.1.12.1.1.1.12.07.12.05.12.05.14.05.12.05.14.02.12v4.28l-.02.18-.02.18-.05.16-.05.16-.05.14-.07.16-.07.14-.07.12-.1.12-.1.12-.12.12-.12.1-.12.1-.12.08-.12.06-.12.06-.12.06-.12.06-.15.04-.12.04-.15.04-.15.04-.15.02-.17.04-.15.02h-.17l-.17.02-.17.02h-.17ZM0,14.81V3.16l.05-.14.07-.14.1-.14.15-.12.15-.14.15-.12.19-.12.19-.12.19-.1.17-.08.19-.06.17-.06.17-.04.17-.02h.15l4.21.02v1.5l-4.21-.02-.02.02h-.05l-.02.02-.05.04-.05.02-.07.04-.05.04-.05.04-.02.04-.05.02v.02l-.02.02v4.48l.02.1.02.1.05.1.05.1.05.1.07.08.1.1.1.08.02.02.05.04.05.02.07.04.05.02.07.02.07.02.07.02.1.02.07.02.1.02h.1l.1.02h.24l.12.02h2.92v1.5h-3.09l-.15-.02h-.15l-.15-.02h-.15l-.12-.02-.15-.02-.12-.02-.12-.02-.12-.04-.12-.02-.12-.04-.12-.04v4.46H0Zm17.93-.02h-.22l-.19-.02-.22-.02-.19-.02-.19-.04-.19-.04-.19-.06-.19-.06-.17-.06-.17-.08-.19-.08-.17-.1-.15-.08-.17-.12-.15-.1-.17-.14-.15-.12-.12-.12-.15-.14-.12-.14-.1-.14-.1-.14-.1-.14-.07-.16-.07-.16-.07-.14-.05-.16-.05-.18-.02-.16-.02-.16-.02-.18v-2.34l.02-.16.02-.18.02-.16.05-.16.05-.16.07-.16.07-.16.07-.14.1-.14.1-.14.1-.14.12-.14.15-.14.12-.12.15-.14.17-.12.15-.1.17-.12.17-.08.17-.1.17-.08.17-.08.19-.06.17-.06.19-.06.19-.04.19-.02.22-.04.19-.02h2.68v1.5l-2.27-.02h-.12l-.12.02h-.1l-.12.02-.12.02-.1.02-.1.02-.12.04-.1.04-.1.04-.1.04-.1.06-.1.04-.07.06-.1.08-.1.06-.07.08-.1.06-.07.08-.05.08-.07.08-.05.08-.05.08-.05.08-.05.08-.02.1-.05.08-.02.1v.08l-.02.1v2.4l.02.08v.1l.02.1.05.08.02.08.05.1.05.08.05.08.05.08.07.08.05.08.07.08.1.06.07.08.1.08.1.06.07.06.1.06.1.04.1.06.1.04.1.04.12.02.1.04.12.02.1.02.12.02h.1l.12.02h2.39v1.5l-2.27-.02Zm4.73.02h-2.46v-1.5l2.27.02h.12l.1-.02h.12l.12-.02.1-.02.12-.02.1-.02.1-.04.12-.04.1-.04.1-.04.1-.06.07-.04.1-.06.1-.08.1-.06.07-.08.07-.06.07-.08.07-.08.07-.08.05-.08.05-.08.05-.08.05-.1.02-.08.02-.08.02-.1.02-.1.02-.08v-2.4l-.02-.08-.02-.1-.02-.1-.02-.08-.02-.08-.05-.1-.05-.08-.05-.08-.05-.08-.07-.08-.07-.08-.07-.08-.07-.08-.1-.06-.07-.08-.1-.06-.1-.06-.1-.06-.07-.04-.1-.06-.12-.04-.1-.04-.1-.02-.1-.04-.12-.02-.1-.02-.12-.02h-.12l-.12-.02h-2.36v-1.5l2.27.02h.19l.22.02.19.02.22.02.19.04.19.04.19.06.17.06.19.06.17.08.17.08.17.08.17.1.17.12.15.1.17.12.15.14.12.12.12.14.12.14.12.14.1.14.1.14.07.16.07.16.07.14.05.16.02.18.05.16.02.16v.18l.02.16v2l-.02.18v.18l-.02.16-.02.16-.05.18-.05.16-.07.14-.07.16-.07.16-.1.14-.1.14-.1.14-.12.14-.15.12-.12.14-.15.12-.15.12-.17.12-.17.1-.15.1-.17.08-.19.08-.17.08-.17.06-.19.06-.19.06-.19.04-.19.02-.22.04-.19.02h-.22Zm4.87.02V6.02h1.83v.3l.1-.02.12-.04.12-.02.12-.02.15-.02.12-.02.12-.02.15-.02h.15l.15-.02h.44l5.85.02h.22l.19.02h.22l.19.02.19.04.19.02.17.04.17.06.17.04.17.06.15.06.15.08.15.08.12.08.12.08.1.1.1.1.1.08.07.12.07.1.07.1.07.12.05.12.05.12.05.14.05.12.02.14.02.14.02.14v.16l.02.14v1.04h-1.71v-1.02l-.02-.16-.05-.14-.05-.12-.05-.12-.07-.1-.1-.1-.1-.08-.1-.08-.12-.06-.15-.06-.15-.04-.17-.04-.19-.02-.22-.02h-.22l-5.85-.04h-.24l-.1.02h-.12l-.1.02h-.07l-.1.02-.1.02-.07.02-.07.02-.05.02-.07.02-.05.04-.05.02-.05.02-.05.04-.1.08-.1.1-.07.08-.05.1-.05.1-.05.08-.02.1v6.34l-1.83-.02Zm22.88.12l-5.41-.04h-.22l-.22-.02-.19-.02-.19-.02-.19-.04-.19-.06-.19-.06-.17-.06-.17-.08-.17-.08-.17-.1-.15-.1-.15-.12-.15-.12-.15-.12-.12-.14-.12-.12-.1-.12-.1-.12-.07-.12-.07-.14-.07-.12-.07-.14-.05-.12-.05-.14-.05-.14-.05-.14-.02-.14-.02-.14-.02-.14V1.84h1.83v4.26l11.01.06v1.48l-11.01-.04v4.28l.02.06.02.08.02.06.02.08.02.08.02.06.05.08.05.06.05.08.05.08.05.06.05.08.07.06.07.08.07.08.07.06.07.06.07.06.1.06.07.04.07.04.1.04.07.02.07.04.1.02.1.02h.07l.1.02h.1l5.51.02h.17l.15-.02h.17l.15-.04.17-.02.15-.04.15-.04.15-.06.19-.08.15-.08.12-.1.1-.1.07-.1.05-.12.02-.12.02-.14v-.88h1.71v1.14l-.02.14-.02.14-.02.14-.05.12-.05.12-.07.12-.07.12-.07.12-.1.1-.1.12-.12.1-.12.1-.15.1-.12.08-.15.08-.15.08-.15.06-.12.06-.15.06-.15.06-.17.04-.15.06-.15.02-.17.04-.15.04-.17.02-.17.02-.17.02h-.17l-.17.02h-.17Zm8.84.04l-.22-.02h-.22l-.19-.02-.19-.04-.19-.04-.19-.04-.19-.04-.19-.06-.17-.08-.19-.08-.17-.08-.17-.08-.17-.1-.15-.1-.17-.12-.15-.12-.15-.14-.15-.12-.12-.14-.12-.14-.1-.14-.12-.14-.07-.14-.1-.16-.07-.14-.05-.16-.05-.16-.05-.16-.02-.18-.02-.16-.02-.18v-2.34l.02-.16.02-.16.02-.18.05-.16.05-.16.05-.16.07-.14.1-.16.1-.14.1-.14.1-.14.12-.14.12-.14.15-.12.15-.12.15-.12.17-.12.17-.1.15-.1.17-.1.19-.08.17-.06.19-.08.17-.06.19-.04.19-.04.19-.04.19-.02.22-.02.19-.02h.22l8.67.04v1.48l-8.67-.04-.12.02h-.24l-.1.02-.12.02-.1.02-.1.04-.1.02-.12.04-.1.04-.1.04-.1.06-.07.06-.1.04-.1.08-.07.06-.1.08-.07.06-.07.08-.07.08-.05.08-.07.06-.05.08-.05.1-.05.08-.02.08-.02.08-.02.1-.02.08-.02.1,9.43.04,1.58.06v1.44l-11.04-.06v.84l.02.1v.08l.02.1.02.1.02.08.05.08.02.1.05.08.05.08.07.08.05.08.07.08.07.08.07.08.1.06.1.08.07.06.1.06.1.06.1.04.1.06.1.04.1.04.1.02.12.04.1.02.12.02.1.02.12.02h.24l8.67.04v1.5l-8.67-.04Z"/>
        <g>
          <path class="cls-3" d="m64.73,18.29v.44h-.95c-.27,0-.51.08-.73.26-.19.16-.29.36-.29.6v.7h1.97v.44h-1.97v1.28h-.56v-2.42c0-.36.17-.66.49-.92.29-.26.68-.38,1.1-.38h.95Zm-3.75,3.72h-.58v-2.8l-.85.84c-.46.44-.78.66-.95.66-.15,0-.51-.22-1.02-.68-.19-.2-.51-.48-.95-.86v2.84h-.56v-3.42c0-.18.07-.26.22-.26s.51.26,1.17.82c.02.02.39.34,1.15.98.24-.22.61-.54,1.07-.98.58-.56.95-.82,1.07-.82.17,0,.24.08.24.26v3.42Zm12.5-.26c0,.18-.07.28-.24.28-.05,0-.19-.12-.41-.28l-3.83-2.56v2.84h-.56v-3.5c0-.18.07-.26.24-.26.07,0,.17.08.37.22l3.87,2.62v-2.78h.56v3.42Zm-8.75-1.02v-.44h1.97v-.7c0-.24-.1-.44-.29-.6-.22-.18-.46-.26-.76-.26h-.93v-.44h.93c.44,0,.83.12,1.15.38.29.26.46.56.46.92v2.42h-.56v-1.28h-1.97Zm12.43-2.42v.44h-1.8c-.12,0-.17.04-.17.14l.02,2.52c0,.1.07.16.24.16h1.71v.44h-1.68c-.56,0-.83-.2-.83-.6v-2.54c0-.38.27-.56.83-.56h1.68Zm0,3.7v-.44h.93c.29,0,.54-.08.73-.26.22-.16.32-.36.32-.6v-1.12c0-.22-.1-.42-.32-.6-.19-.16-.44-.24-.73-.24h-.93v-.44h.93c.46,0,.85.12,1.15.36.29.24.44.54.44.92v1.12c0,.36-.15.68-.46.92-.29.26-.68.38-1.12.38h-.93Zm6.21-3.72v.44h-.95c-.27,0-.51.08-.73.26-.19.16-.29.36-.29.6v.7h1.97v.44h-1.97v1.28h-.56v-2.42c0-.36.17-.66.46-.92.32-.26.68-.38,1.12-.38h.95Zm0,2.44v-.44h1.97v-.7c0-.24-.1-.44-.29-.6-.22-.18-.46-.26-.76-.26h-.93v-.44h.93c.44,0,.83.12,1.15.38.29.26.46.56.46.92v2.42h-.56v-1.28h-1.97Zm6.21-2.42v.44h-1.71s-.1.02-.15.08c-.07.04-.12.08-.12.12v1.24l1.97.02v.42h-1.97v1.38h-.54v-3.18c0-.1.1-.24.29-.36.19-.12.37-.16.54-.16h1.68Zm0,2.32v-.42h1.19c.51,0,.78-.2.78-.6v-.38c0-.2-.1-.36-.34-.42-.15-.04-.37-.06-.68-.06h-.95v-.44h.97c.54,0,.9.04,1.1.14.32.14.46.4.46.78v.38c0,.36-.15.64-.44.82.29.2.44.44.44.74v.84h-.56v-.84c0-.16-.07-.3-.24-.4-.17-.08-.34-.14-.54-.14h-1.19Zm6.24-2.34v.44h-.95c-.29,0-.54.08-.73.26-.19.16-.29.36-.29.6v.7h1.97v.44h-1.97v1.28h-.56v-2.42c0-.36.15-.66.46-.92.32-.26.68-.38,1.12-.38h.95Zm0,2.44v-.44h1.97v-.7c0-.24-.1-.44-.32-.6-.19-.18-.44-.26-.73-.26h-.93v-.44h.93c.44,0,.8.12,1.12.38.32.26.46.56.46.92v2.42h-.54v-1.28h-1.97Z"/>
          <path class="cls-2" d="m76.16,14.67l-4.04-1.32-.19-.08-.19-.08-.17-.08-.19-.08-.17-.1-.15-.1-.15-.1-.15-.12-.15-.12-.15-.12-.12-.12-.12-.14-.1-.14-.1-.14-.1-.16-.1-.16-.07-.16-.07-.16-.05-.16-.05-.14-.05-.18-.02-.16-.02-.16v-.32l.02-.18.02-.16.02-.16.05-.16.05-.18.07-.16.07-.16.49-.98.07-.16.1-.16.1-.14.1-.14.12-.14.12-.14.12-.12.15-.12.15-.12.15-.1.15-.12.17-.08.17-.1.19-.08.17-.08.19-.08.19-.06.19-.06.19-.04.22-.04.19-.04.19-.02.19-.02h.41l.19.02.19.02.19.02.22.04.19.04.19.06.19.06.46.16v1.6l-1.15-.38-.1-.04-.12-.02-.1-.02-.12-.02-.1-.02-.12-.02h-.32l-.12.02h-.12l-.1.02-.12.02-.1.04-.12.02-.12.04-.1.04-.12.04-.1.04-.1.06-.1.04-.07.06-.1.06-.07.06-.07.08-.07.06-.07.06-.07.08-.05.08-.05.08-.05.08-.05.1-.54,1.06-.02.1-.05.08-.02.1-.02.08-.02.1v.36l.02.08v.1l.02.08.02.1.05.08.05.1.02.08.07.08.05.08.05.08.07.08.07.08.05.08.07.06.1.06.07.08.07.04.1.06.1.06.1.04.1.04.1.04.12.04,3.36,1.12v1.6Zm0-10.32l-8.99-2.98.68-1.38,8.31,2.74v1.62Zm6.26,3.06l-.02-.08-.02-.1-.05-.08-.02-.1-.05-.08-.05-.1-.05-.08-.07-.08-.05-.08-.07-.08-.07-.08-.07-.06-.07-.06-.07-.08-.1-.04-.07-.06-.1-.06-.1-.04-.1-.04-.12-.06-.1-.02-4.82-1.6v-1.62l5.51,1.82.19.08.17.08.19.08.17.08.17.1.15.1.17.1.15.1.12.12.15.14.12.12.12.14.1.14.1.14.1.16.1.16.07.16.07.16.07.18.05.16.02.16.02.16.02.16v.5l-.02.16-.05.16-.02.16-.07.18-.05.16-.07.16-1.46,2.94-.49.98v.04l-.05.1-.02.08-.02.1-.02.08-.02.1v.08l-.02.1v.08l.02.1v.08l.02.1.02.1.02.08.02.1.05.08.05.1.1.18.12.16.12.14.15.12.17.12.17.12.19.08.22.08c.66.24,1.46.62,2.19.62h12.84v1.58h-12.84c-.95,0-2.02-.5-2.9-.82l-.19-.06-.17-.08-.19-.08-.17-.08-.15-.1-.17-.1-.15-.1-.15-.12-.12-.12-.15-.12-.12-.12-.1-.14-.12-.14-.1-.14-.1-.16-.07-.16-.05-.06-.02-.08-.05-.08-.02-.08-.02-.06-.07.04-.07.02-.1.04-.1.04-.07.04-.22.06-.19.06-.19.04-.19.04-.19.04-.19.02-.22.02h-.39l-.19-.02-.19-.02-.22-.02-.19-.04-.19-.04-.19-.06-.17-.06-.49-.16v-1.6l1.15.38.1.04.12.02.1.04.12.02h.1l.12.02h.44l.1-.02.12-.02.12-.02.1-.02.12-.04.1-.04.12-.04.1-.04.1-.04.1-.06.1-.04.1-.06.07-.06.1-.06.07-.06.07-.08.07-.06.05-.08.07-.08.05-.08.05-.08.05-.1.54-1.04.02-.1.05-.1.02-.08.02-.08v-.08l.02-.1v-.26l-.02-.1-.02-.08-.02-.1-.02-.08-.02-.1-.05-.1-.05-.08-.05-.1-.05-.08-.05-.08-.07-.08-.07-.08-.05-.06-.07-.08-.1-.06-.07-.06-.07-.06-.1-.06-.1-.04-.1-.06-.1-.04-.1-.04-.12-.04-3.36-1.12v-1.6l4.04,1.34.17.06.17.06.17.08.17.08.15.08.15.08.15.1.15.1.12.1.12.1.12.12.12.12.1.12.07.06.17-.38.05-.08.02-.1.02-.08.02-.1.02-.08v-.46l-.02-.1Z"/>
          <path class="cls-1" d="m92,1.78v1.5l-4.21-.02h-.02l-.02.02h-.02l-.02.02-.05.04-.07.02-.05.04-.05.04-.05.04-.05.04-.02.02v.02l-.02.02v4.48l.02.1.02.1.05.1.05.1.05.1.07.08.07.1.1.08.05.02.05.04.05.02.05.04.07.02.07.02.07.02.07.02.07.02.1.02.1.02h.1l.1.02h.22l.12.02h2.95v1.5h-3.09l-.15-.02h-.15l-.15-.02h-.15l-.12-.02-.15-.02-.12-.02-.15-.02-.12-.04-.12-.02-.1-.04-.12-.04v4.46h-1.8V3.16l.05-.14.07-.14.1-.14.12-.12.15-.14.17-.12.19-.12.19-.12.19-.1.17-.08.17-.06.19-.06.17-.04.17-.02h.15l4.21.02Zm0,8.84v-1.5l2.92.02h.22l.19-.02.19-.02.17-.04.17-.04.12-.06.15-.06.1-.08.1-.08.07-.1.07-.1.07-.12.05-.12.02-.14.02-.16v-3.78l-.02-.12-.05-.1-.07-.1-.1-.1-.1-.08-.15-.1-.15-.08-.07-.02-.07-.04-.07-.02-.07-.02-.07-.02-.07-.02-.1-.02-.07-.02-.1-.02h-.07l-.1-.02h-.07l-.1-.02h-.29l-2.68-.02v-1.5l2.63.02h.17l.17.02h.17l.17.02.17.02.17.04.15.02.17.04.15.04.15.04.17.04.15.06.12.06.15.06.15.06.12.08.15.08.15.1.12.08.12.1.12.1.1.12.1.1.07.12.07.12.07.12.05.14.05.12.02.14.02.12.02.14v4.14l-.02.18-.05.18-.02.16-.05.16-.05.14-.07.16-.07.14-.07.12-.1.12-.1.12-.12.12-.12.1-.12.1-.15.08-.1.06-.12.06-.12.06-.15.06-.12.04-.15.04-.12.04-.15.04-.17.02-.15.04-.15.02h-.17l-.17.02-.17.02h-.34l-2.9-.02Zm13.72-4.64v1.5l-2.27-.02h-.12l-.12.02h-.12l-.1.02-.12.02-.1.02-.12.02-.1.04-.1.04-.1.04-.1.04-.1.06-.1.04-.1.06-.07.08-.1.06-.1.08-.07.06-.07.08-.07.08-.05.08-.05.08-.07.08-.02.08-.05.08-.05.1-.02.08-.02.1-.02.08v.2l-.02.1v2l.02.1v.18l.02.1.02.1.02.08.05.08.05.1.02.08.07.08.05.08.05.08.07.08.07.08.1.06.07.08.1.08.07.06.1.06.1.06.1.04.1.06.1.04.1.04.12.02.1.04.1.02.12.02.12.02h.1l.12.02h2.39v1.5l-2.27-.02h-.22l-.19-.02-.22-.02-.19-.02-.19-.04-.19-.04-.19-.06-.19-.06-.17-.06-.19-.08-.17-.08-.17-.1-.17-.08-.15-.12-.17-.1-.15-.14-.15-.12-.15-.12-.12-.14-.12-.14-.1-.14-.1-.14-.1-.14-.07-.16-.07-.16-.07-.14-.05-.16-.05-.18-.02-.16-.02-.16-.02-.18v-2.34l.02-.16.02-.18.02-.16.05-.16.05-.16.07-.16.07-.16.07-.14.1-.14.1-.14.1-.14.12-.14.15-.14.12-.12.15-.14.17-.12.15-.1.17-.12.17-.1.17-.08.17-.08.17-.08.19-.06.17-.06.19-.06.19-.04.19-.02.19-.04.22-.02h2.68Zm18.37,2.38l-.05-.12-.07-.1-.1-.1-.1-.08-.1-.08-.12-.06-.15-.06-.17-.04-.17-.04-.17-.02-.22-.02h-.22l-5.85-.04h-.24l-.1.02h-.12l-.1.02h-.1l-.07.02-.1.02-.07.02-.07.02-.07.02-.05.02-.05.04-.07.02-.02.02-.05.04-.1.08-.1.1-.07.08-.07.1-.05.1-.02.08-.02.1v6.34l-1.83-.02V6.02h1.83v.3l.1-.02.12-.04.12-.02.12-.02.12-.02.15-.02.12-.02.15-.02h.15l.12-.02h.46l5.82.02h.22l.22.02h.22l.19.02.19.04.19.02.17.04.17.06.17.04.17.06.15.06.15.08.12.08.15.08.12.08.1.1.1.1.1.08.07.12.07.1.07.1.07.12.05.12.05.12.05.14.02.12.05.14.02.14.02.14v.16l.02.14v1.04h-1.71v-.86l-.02-.16v-.16l-.05-.14-.05-.12Zm15.59,4.16v.14l-.02.14-.02.14-.02.12-.05.14-.05.12-.07.12-.07.12-.1.12-.07.1-.12.12-.1.1-.12.1-.15.1-.12.08-.17.08-.12.08-.15.06-.15.06-.15.06-.15.06-.15.04-.15.06-.15.02-.17.04-.15.04-.17.02-.17.02-.17.02h-.17l-.17.02h-.17l-5.41-.04h-.22l-.22-.02-.19-.02-.19-.02-.19-.04-.19-.06-.19-.06-.17-.06-.17-.08-.17-.08-.17-.1-.15-.1-.15-.12-.15-.12-.15-.12-.12-.14-.12-.12-.1-.12-.1-.12-.07-.12-.07-.14-.07-.12-.07-.14-.07-.12-.05-.14-.05-.14-.02-.14-.02-.14-.02-.14-.02-.14v-.14l-.02-.16V1.84h1.83v4.26l11.04.06v1.48l-11.04-.04v4.06l.02.06v.16l.02.06.02.08v.06l.05.08.02.08.02.06.05.08.02.06.05.08.05.08.07.06.05.08.07.06.07.08.07.08.07.06.07.06.07.06.07.06.1.04.07.04.07.04.1.02.07.04.1.02.07.02h.1l.1.02h.1l5.48.02h.17l.17-.02h.17l.15-.04.17-.02.15-.04.15-.04.15-.06.19-.08.15-.08.12-.1.1-.1.07-.1.05-.12.02-.12v-1.02h1.73v1Zm-33.96,2.3v-1.5l2.24.02h.12l.12-.02h.12l.12-.02.1-.02.12-.02.1-.02.1-.04.1-.04.1-.04.1-.04.1-.06.1-.04.1-.06.1-.08.07-.06.1-.08.07-.06.07-.08.07-.08.05-.08.07-.08.05-.08.05-.08.02-.08.05-.1.02-.08.02-.1.02-.1v-.08l.02-.1v-2.2l-.02-.1v-.08l-.02-.1-.02-.1-.02-.08-.05-.08-.02-.1-.05-.08-.05-.08-.07-.08-.05-.08-.07-.08-.07-.08-.07-.08-.1-.06-.07-.08-.1-.06-.1-.06-.1-.06-.1-.04-.1-.06-.1-.04-.1-.04-.1-.02-.12-.04-.1-.02-.12-.02-.1-.02h-.12l-.12-.02h-2.36v-1.5l2.27.02h.19l.22.02.19.02.22.02.19.04.19.04.17.06.19.06.19.06.17.08.17.08.17.08.17.1.17.12.15.1.15.12.15.14.15.12.12.14.12.14.12.14.1.14.07.14.1.16.07.16.05.14.07.16.02.18.05.16.02.16v2.7l-.02.16-.05.16-.02.18-.07.16-.05.14-.07.16-.07.16-.1.14-.1.14-.12.14-.1.14-.15.12-.12.14-.15.12-.17.12-.15.12-.17.1-.17.1-.17.08-.17.08-.17.08-.19.06-.17.06-.19.06-.19.04-.19.02-.22.04-.19.02h-2.68Zm39.05-7.18l-.12.02h-.24l-.1.02-.12.02-.1.02-.1.04-.12.02-.1.04-.1.04-.1.04-.1.06-.1.06-.07.04-.1.08-.1.06-.07.08-.07.06-.07.08-.07.08-.07.08-.05.06-.05.08-.05.1-.05.08-.02.08-.05.08-.02.1-.02.08v.1l9.43.04,1.58.06v1.44l-11.04-.06v.84l.02.1v.08l.02.1.02.1.02.08.05.08.02.1.05.08.05.08.07.08.05.08.07.08.07.08.07.08.1.06.07.08.1.06.1.06.1.06.1.04.1.06.1.04.1.04.1.02.12.04.1.02.12.02.1.02.12.02h.24l8.67.04v1.5l-8.7-.04-.19-.02h-.22l-.19-.02-.19-.04-.22-.04-.19-.04-.17-.04-.19-.06-.19-.08-.17-.08-.17-.08-.17-.08-.17-.1-.17-.1-.15-.12-.15-.12-.15-.14-.15-.12-.12-.14-.12-.14-.12-.14-.1-.14-.07-.14-.1-.16-.07-.14-.05-.16-.05-.16-.05-.16-.05-.18-.02-.16v-2.68l.02-.16.05-.18.05-.16.05-.16.05-.16.07-.14.1-.16.07-.14.1-.14.12-.14.12-.14.12-.14.15-.12.15-.12.15-.12.17-.12.15-.1.17-.1.17-.1.17-.08.19-.06.17-.08.19-.06.19-.04.19-.04.19-.04.19-.02.22-.02.19-.02h.22l8.67.04v1.48l-8.67-.04Z"/>
          <path class="cls-3" d="m150.83,2.3V.8h.76v.26h-.39v.38h.39v.32s-.07-.06-.12-.06c-.02-.02-.1-.02-.17-.02h-.1v.62h-.37Zm.76-1.5h.02c.19,0,.34.02.44.04.07.04.15.08.19.14.05.08.1.16.1.24,0,.12-.05.2-.12.28-.1.08-.22.12-.37.14.07.04.15.08.19.12.05.04.12.12.19.24l.24.3h-.44l-.27-.32c-.1-.12-.17-.2-.19-.22v-.32c.12,0,.19-.02.22-.02.05-.02.07-.04.1-.06.02-.04.05-.08.05-.12s-.02-.08-.05-.12-.07-.06-.15-.06h-.17v-.26Z"/>
          <path class="cls-4" d="m151.56.24c.88,0,1.61.58,1.61,1.3s-.73,1.32-1.61,1.32-1.58-.58-1.58-1.32.71-1.3,1.58-1.3Z"/>
        </g>
      </g>
      <path class="cls-3" d="m9.55,10.64h-.17l-2.9-.02v-1.5l2.92.02h.22l.22-.02.17-.02.19-.04.15-.04.15-.06.12-.06.1-.08.1-.08.1-.1.07-.1.05-.12.05-.12.02-.14.02-.16v-3.78l-.02-.12-.05-.1-.07-.1-.1-.1-.1-.08-.12-.1-.17-.08-.07-.02-.07-.04-.07-.02-.07-.02-.07-.02-.07-.02-.1-.02-.07-.02-.07-.02h-.1l-.07-.02h-.1l-.1-.02h-.27l-2.7-.02v-1.5l2.63.02h.17l.17.02h.17l.17.02.17.02.17.04.17.02.15.04.15.04.17.04.15.04.15.06.15.06.12.06.15.06.12.08.17.08.12.1.15.08.12.1.1.1.1.12.1.1.1.12.07.12.05.12.05.14.05.12.05.14.02.12v4.28l-.02.18-.02.18-.05.16-.05.16-.05.14-.07.16-.07.14-.07.12-.1.12-.1.12-.12.12-.12.1-.12.1-.12.08-.12.06-.12.06-.12.06-.12.06-.15.04-.12.04-.15.04-.15.04-.15.02-.17.04-.15.02h-.17l-.17.02-.17.02h-.17ZM0,14.81V3.16l.05-.14.07-.14.1-.14.15-.12.15-.14.15-.12.19-.12.19-.12.19-.1.17-.08.19-.06.17-.06.17-.04.17-.02h.15l4.21.02v1.5l-4.21-.02-.02.02h-.05l-.02.02-.05.04-.05.02-.07.04-.05.04-.05.04-.02.04-.05.02v.02l-.02.02v4.48l.02.1.02.1.05.1.05.1.05.1.07.08.1.1.1.08.02.02.05.04.05.02.07.04.05.02.07.02.07.02.07.02.1.02.07.02.1.02h.1l.1.02h.24l.12.02h2.92v1.5h-3.09l-.15-.02h-.15l-.15-.02h-.15l-.12-.02-.15-.02-.12-.02-.12-.02-.12-.04-.12-.02-.12-.04-.12-.04v4.46H0Zm17.93-.02h-.22l-.19-.02-.22-.02-.19-.02-.19-.04-.19-.04-.19-.06-.19-.06-.17-.06-.17-.08-.19-.08-.17-.1-.15-.08-.17-.12-.15-.1-.17-.14-.15-.12-.12-.12-.15-.14-.12-.14-.1-.14-.1-.14-.1-.14-.07-.16-.07-.16-.07-.14-.05-.16-.05-.18-.02-.16-.02-.16-.02-.18v-2.34l.02-.16.02-.18.02-.16.05-.16.05-.16.07-.16.07-.16.07-.14.1-.14.1-.14.1-.14.12-.14.15-.14.12-.12.15-.14.17-.12.15-.1.17-.12.17-.08.17-.1.17-.08.17-.08.19-.06.17-.06.19-.06.19-.04.19-.02.22-.04.19-.02h2.68v1.5l-2.27-.02h-.12l-.12.02h-.1l-.12.02-.12.02-.1.02-.1.02-.12.04-.1.04-.1.04-.1.04-.1.06-.1.04-.07.06-.1.08-.1.06-.07.08-.1.06-.07.08-.05.08-.07.08-.05.08-.05.08-.05.08-.05.08-.02.1-.05.08-.02.1v.08l-.02.1v2.4l.02.08v.1l.02.1.05.08.02.08.05.1.05.08.05.08.05.08.07.08.05.08.07.08.1.06.07.08.1.08.1.06.07.06.1.06.1.04.1.06.1.04.1.04.12.02.1.04.12.02.1.02.12.02h.1l.12.02h2.39v1.5l-2.27-.02Zm4.73.02h-2.46v-1.5l2.27.02h.12l.1-.02h.12l.12-.02.1-.02.12-.02.1-.02.1-.04.12-.04.1-.04.1-.04.1-.06.07-.04.1-.06.1-.08.1-.06.07-.08.07-.06.07-.08.07-.08.07-.08.05-.08.05-.08.05-.08.05-.1.02-.08.02-.08.02-.1.02-.1.02-.08v-2.4l-.02-.08-.02-.1-.02-.1-.02-.08-.02-.08-.05-.1-.05-.08-.05-.08-.05-.08-.07-.08-.07-.08-.07-.08-.07-.08-.1-.06-.07-.08-.1-.06-.1-.06-.1-.06-.07-.04-.1-.06-.12-.04-.1-.04-.1-.02-.1-.04-.12-.02-.1-.02-.12-.02h-.12l-.12-.02h-2.36v-1.5l2.27.02h.19l.22.02.19.02.22.02.19.04.19.04.19.06.17.06.19.06.17.08.17.08.17.08.17.1.17.12.15.1.17.12.15.14.12.12.12.14.12.14.12.14.1.14.1.14.07.16.07.16.07.14.05.16.02.18.05.16.02.16v.18l.02.16v2l-.02.18v.18l-.02.16-.02.16-.05.18-.05.16-.07.14-.07.16-.07.16-.1.14-.1.14-.1.14-.12.14-.15.12-.12.14-.15.12-.15.12-.17.12-.17.1-.15.1-.17.08-.19.08-.17.08-.17.06-.19.06-.19.06-.19.04-.19.02-.22.04-.19.02h-.22Zm4.87.02V6.02h1.83v.3l.1-.02.12-.04.12-.02.12-.02.15-.02.12-.02.12-.02.15-.02h.15l.15-.02h.44l5.85.02h.22l.19.02h.22l.19.02.19.04.19.02.17.04.17.06.17.04.17.06.15.06.15.08.15.08.12.08.12.08.1.1.1.1.1.08.07.12.07.1.07.1.07.12.05.12.05.12.05.14.05.12.02.14.02.14.02.14v.16l.02.14v1.04h-1.71v-1.02l-.02-.16-.05-.14-.05-.12-.05-.12-.07-.1-.1-.1-.1-.08-.1-.08-.12-.06-.15-.06-.15-.04-.17-.04-.19-.02-.22-.02h-.22l-5.85-.04h-.24l-.1.02h-.12l-.1.02h-.07l-.1.02-.1.02-.07.02-.07.02-.05.02-.07.02-.05.04-.05.02-.05.02-.05.04-.1.08-.1.1-.07.08-.05.1-.05.1-.05.08-.02.1v6.34l-1.83-.02Zm22.88.12l-5.41-.04h-.22l-.22-.02-.19-.02-.19-.02-.19-.04-.19-.06-.19-.06-.17-.06-.17-.08-.17-.08-.17-.1-.15-.1-.15-.12-.15-.12-.15-.12-.12-.14-.12-.12-.1-.12-.1-.12-.07-.12-.07-.14-.07-.12-.07-.14-.05-.12-.05-.14-.05-.14-.05-.14-.02-.14-.02-.14-.02-.14V1.84h1.83v4.26l11.01.06v1.48l-11.01-.04v4.28l.02.06.02.08.02.06.02.08.02.08.02.06.05.08.05.06.05.08.05.08.05.06.05.08.07.06.07.08.07.08.07.06.07.06.07.06.1.06.07.04.07.04.1.04.07.02.07.04.1.02.1.02h.07l.1.02h.1l5.51.02h.17l.15-.02h.17l.15-.04.17-.02.15-.04.15-.04.15-.06.19-.08.15-.08.12-.1.1-.1.07-.1.05-.12.02-.12.02-.14v-.88h1.71v1.14l-.02.14-.02.14-.02.14-.05.12-.05.12-.07.12-.07.12-.07.12-.1.1-.1.12-.12.1-.12.1-.15.1-.12.08-.15.08-.15.08-.15.06-.12.06-.15.06-.15.06-.17.04-.15.06-.15.02-.17.04-.15.04-.17.02-.17.02-.17.02h-.17l-.17.02h-.17Zm8.84.04l-.22-.02h-.22l-.19-.02-.19-.04-.19-.04-.19-.04-.19-.04-.19-.06-.17-.08-.19-.08-.17-.08-.17-.08-.17-.1-.15-.1-.17-.12-.15-.12-.15-.14-.15-.12-.12-.14-.12-.14-.1-.14-.12-.14-.07-.14-.1-.16-.07-.14-.05-.16-.05-.16-.05-.16-.02-.18-.02-.16-.02-.18v-2.34l.02-.16.02-.16.02-.18.05-.16.05-.16.05-.16.07-.14.1-.16.1-.14.1-.14.1-.14.12-.14.12-.14.15-.12.15-.12.15-.12.17-.12.17-.1.15-.1.17-.1.19-.08.17-.06.19-.08.17-.06.19-.04.19-.04.19-.04.19-.02.22-.02.19-.02h.22l8.67.04v1.48l-8.67-.04-.12.02h-.24l-.1.02-.12.02-.1.02-.1.04-.1.02-.12.04-.1.04-.1.04-.1.06-.07.06-.1.04-.1.08-.07.06-.1.08-.07.06-.07.08-.07.08-.05.08-.07.06-.05.08-.05.1-.05.08-.02.08-.02.08-.02.1-.02.08-.02.1,9.43.04,1.58.06v1.44l-11.04-.06v.84l.02.1v.08l.02.1.02.1.02.08.05.08.02.1.05.08.05.08.07.08.05.08.07.08.07.08.07.08.1.06.1.08.07.06.1.06.1.06.1.04.1.06.1.04.1.04.1.02.12.04.1.02.12.02.1.02.12.02h.24l8.67.04v1.5l-8.67-.04Z"/>
      <g>
        <path class="cls-3" d="m64.73,18.29v.44h-.95c-.27,0-.51.08-.73.26-.19.16-.29.36-.29.6v.7h1.97v.44h-1.97v1.28h-.56v-2.42c0-.36.17-.66.49-.92.29-.26.68-.38,1.1-.38h.95Zm-3.75,3.72h-.58v-2.8l-.85.84c-.46.44-.78.66-.95.66-.15,0-.51-.22-1.02-.68-.19-.2-.51-.48-.95-.86v2.84h-.56v-3.42c0-.18.07-.26.22-.26s.51.26,1.17.82c.02.02.39.34,1.15.98.24-.22.61-.54,1.07-.98.58-.56.95-.82,1.07-.82.17,0,.24.08.24.26v3.42Zm12.5-.26c0,.18-.07.28-.24.28-.05,0-.19-.12-.41-.28l-3.83-2.56v2.84h-.56v-3.5c0-.18.07-.26.24-.26.07,0,.17.08.37.22l3.87,2.62v-2.78h.56v3.42Zm-8.75-1.02v-.44h1.97v-.7c0-.24-.1-.44-.29-.6-.22-.18-.46-.26-.76-.26h-.93v-.44h.93c.44,0,.83.12,1.15.38.29.26.46.56.46.92v2.42h-.56v-1.28h-1.97Zm12.43-2.42v.44h-1.8c-.12,0-.17.04-.17.14l.02,2.52c0,.1.07.16.24.16h1.71v.44h-1.68c-.56,0-.83-.2-.83-.6v-2.54c0-.38.27-.56.83-.56h1.68Zm0,3.7v-.44h.93c.29,0,.54-.08.73-.26.22-.16.32-.36.32-.6v-1.12c0-.22-.1-.42-.32-.6-.19-.16-.44-.24-.73-.24h-.93v-.44h.93c.46,0,.85.12,1.15.36.29.24.44.54.44.92v1.12c0,.36-.15.68-.46.92-.29.26-.68.38-1.12.38h-.93Zm6.21-3.72v.44h-.95c-.27,0-.51.08-.73.26-.19.16-.29.36-.29.6v.7h1.97v.44h-1.97v1.28h-.56v-2.42c0-.36.17-.66.46-.92.32-.26.68-.38,1.12-.38h.95Zm0,2.44v-.44h1.97v-.7c0-.24-.1-.44-.29-.6-.22-.18-.46-.26-.76-.26h-.93v-.44h.93c.44,0,.83.12,1.15.38.29.26.46.56.46.92v2.42h-.56v-1.28h-1.97Zm6.21-2.42v.44h-1.71s-.1.02-.15.08c-.07.04-.12.08-.12.12v1.24l1.97.02v.42h-1.97v1.38h-.54v-3.18c0-.1.1-.24.29-.36.19-.12.37-.16.54-.16h1.68Zm0,2.32v-.42h1.19c.51,0,.78-.2.78-.6v-.38c0-.2-.1-.36-.34-.42-.15-.04-.37-.06-.68-.06h-.95v-.44h.97c.54,0,.9.04,1.1.14.32.14.46.4.46.78v.38c0,.36-.15.64-.44.82.29.2.44.44.44.74v.84h-.56v-.84c0-.16-.07-.3-.24-.4-.17-.08-.34-.14-.54-.14h-1.19Zm6.24-2.34v.44h-.95c-.29,0-.54.08-.73.26-.19.16-.29.36-.29.6v.7h1.97v.44h-1.97v1.28h-.56v-2.42c0-.36.15-.66.46-.92.32-.26.68-.38,1.12-.38h.95Zm0,2.44v-.44h1.97v-.7c0-.24-.1-.44-.32-.6-.19-.18-.44-.26-.73-.26h-.93v-.44h.93c.44,0,.8.12,1.12.38.32.26.46.56.46.92v2.42h-.54v-1.28h-1.97Z"/>
        <path class="cls-2" d="m76.16,14.67l-4.04-1.32-.19-.08-.19-.08-.17-.08-.19-.08-.17-.1-.15-.1-.15-.1-.15-.12-.15-.12-.15-.12-.12-.12-.12-.14-.1-.14-.1-.14-.1-.16-.1-.16-.07-.16-.07-.16-.05-.16-.05-.14-.05-.18-.02-.16-.02-.16v-.32l.02-.18.02-.16.02-.16.05-.16.05-.18.07-.16.07-.16.49-.98.07-.16.1-.16.1-.14.1-.14.12-.14.12-.14.12-.12.15-.12.15-.12.15-.1.15-.12.17-.08.17-.1.19-.08.17-.08.19-.08.19-.06.19-.06.19-.04.22-.04.19-.04.19-.02.19-.02h.41l.19.02.19.02.19.02.22.04.19.04.19.06.19.06.46.16v1.6l-1.15-.38-.1-.04-.12-.02-.1-.02-.12-.02-.1-.02-.12-.02h-.32l-.12.02h-.12l-.1.02-.12.02-.1.04-.12.02-.12.04-.1.04-.12.04-.1.04-.1.06-.1.04-.07.06-.1.06-.07.06-.07.08-.07.06-.07.06-.07.08-.05.08-.05.08-.05.08-.05.1-.54,1.06-.02.1-.05.08-.02.1-.02.08-.02.1v.36l.02.08v.1l.02.08.02.1.05.08.05.1.02.08.07.08.05.08.05.08.07.08.07.08.05.08.07.06.1.06.07.08.07.04.1.06.1.06.1.04.1.04.1.04.12.04,3.36,1.12v1.6Zm0-10.32l-8.99-2.98.68-1.38,8.31,2.74v1.62Zm6.26,3.06l-.02-.08-.02-.1-.05-.08-.02-.1-.05-.08-.05-.1-.05-.08-.07-.08-.05-.08-.07-.08-.07-.08-.07-.06-.07-.06-.07-.08-.1-.04-.07-.06-.1-.06-.1-.04-.1-.04-.12-.06-.1-.02-4.82-1.6v-1.62l5.51,1.82.19.08.17.08.19.08.17.08.17.1.15.1.17.1.15.1.12.12.15.14.12.12.12.14.1.14.1.14.1.16.1.16.07.16.07.16.07.18.05.16.02.16.02.16.02.16v.5l-.02.16-.05.16-.02.16-.07.18-.05.16-.07.16-1.46,2.94-.49.98v.04l-.05.1-.02.08-.02.1-.02.08-.02.1v.08l-.02.1v.08l.02.1v.08l.02.1.02.1.02.08.02.1.05.08.05.1.1.18.12.16.12.14.15.12.17.12.17.12.19.08.22.08c.66.24,1.46.62,2.19.62h12.84v1.58h-12.84c-.95,0-2.02-.5-2.9-.82l-.19-.06-.17-.08-.19-.08-.17-.08-.15-.1-.17-.1-.15-.1-.15-.12-.12-.12-.15-.12-.12-.12-.1-.14-.12-.14-.1-.14-.1-.16-.07-.16-.05-.06-.02-.08-.05-.08-.02-.08-.02-.06-.07.04-.07.02-.1.04-.1.04-.07.04-.22.06-.19.06-.19.04-.19.04-.19.04-.19.02-.22.02h-.39l-.19-.02-.19-.02-.22-.02-.19-.04-.19-.04-.19-.06-.17-.06-.49-.16v-1.6l1.15.38.1.04.12.02.1.04.12.02h.1l.12.02h.44l.1-.02.12-.02.12-.02.1-.02.12-.04.1-.04.12-.04.1-.04.1-.04.1-.06.1-.04.1-.06.07-.06.1-.06.07-.06.07-.08.07-.06.05-.08.07-.08.05-.08.05-.08.05-.1.54-1.04.02-.1.05-.1.02-.08.02-.08v-.08l.02-.1v-.26l-.02-.1-.02-.08-.02-.1-.02-.08-.02-.1-.05-.1-.05-.08-.05-.1-.05-.08-.05-.08-.07-.08-.07-.08-.05-.06-.07-.08-.1-.06-.07-.06-.07-.06-.1-.06-.1-.04-.1-.06-.1-.04-.1-.04-.12-.04-3.36-1.12v-1.6l4.04,1.34.17.06.17.06.17.08.17.08.15.08.15.08.15.1.15.1.12.1.12.1.12.12.12.12.1.12.07.06.17-.38.05-.08.02-.1.02-.08.02-.1.02-.08v-.46l-.02-.1Z"/>
        <path class="cls-1" d="m92,1.78v1.5l-4.21-.02h-.02l-.02.02h-.02l-.02.02-.05.04-.07.02-.05.04-.05.04-.05.04-.05.04-.02.02v.02l-.02.02v4.48l.02.1.02.1.05.1.05.1.05.1.07.08.07.1.1.08.05.02.05.04.05.02.05.04.07.02.07.02.07.02.07.02.07.02.1.02.1.02h.1l.1.02h.22l.12.02h2.95v1.5h-3.09l-.15-.02h-.15l-.15-.02h-.15l-.12-.02-.15-.02-.12-.02-.15-.02-.12-.04-.12-.02-.1-.04-.12-.04v4.46h-1.8V3.16l.05-.14.07-.14.1-.14.12-.12.15-.14.17-.12.19-.12.19-.12.19-.1.17-.08.17-.06.19-.06.17-.04.17-.02h.15l4.21.02Zm0,8.84v-1.5l2.92.02h.22l.19-.02.19-.02.17-.04.17-.04.12-.06.15-.06.1-.08.1-.08.07-.1.07-.1.07-.12.05-.12.02-.14.02-.16v-3.78l-.02-.12-.05-.1-.07-.1-.1-.1-.1-.08-.15-.1-.15-.08-.07-.02-.07-.04-.07-.02-.07-.02-.07-.02-.07-.02-.1-.02-.07-.02-.1-.02h-.07l-.1-.02h-.07l-.1-.02h-.29l-2.68-.02v-1.5l2.63.02h.17l.17.02h.17l.17.02.17.02.17.04.15.02.17.04.15.04.15.04.17.04.15.06.12.06.15.06.15.06.12.08.15.08.15.1.12.08.12.1.12.1.1.12.1.1.07.12.07.12.07.12.05.14.05.12.02.14.02.12.02.14v4.14l-.02.18-.05.18-.02.16-.05.16-.05.14-.07.16-.07.14-.07.12-.1.12-.1.12-.12.12-.12.1-.12.1-.15.08-.1.06-.12.06-.12.06-.15.06-.12.04-.15.04-.12.04-.15.04-.17.02-.15.04-.15.02h-.17l-.17.02-.17.02h-.34l-2.9-.02Zm13.72-4.64v1.5l-2.27-.02h-.12l-.12.02h-.12l-.1.02-.12.02-.1.02-.12.02-.1.04-.1.04-.1.04-.1.04-.1.06-.1.04-.1.06-.07.08-.1.06-.1.08-.07.06-.07.08-.07.08-.05.08-.05.08-.07.08-.02.08-.05.08-.05.1-.02.08-.02.1-.02.08v.2l-.02.1v2l.02.1v.18l.02.1.02.1.02.08.05.08.05.1.02.08.07.08.05.08.05.08.07.08.07.08.1.06.07.08.1.08.07.06.1.06.1.06.1.04.1.06.1.04.1.04.12.02.1.04.1.02.12.02.12.02h.1l.12.02h2.39v1.5l-2.27-.02h-.22l-.19-.02-.22-.02-.19-.02-.19-.04-.19-.04-.19-.06-.19-.06-.17-.06-.19-.08-.17-.08-.17-.1-.17-.08-.15-.12-.17-.1-.15-.14-.15-.12-.15-.12-.12-.14-.12-.14-.1-.14-.1-.14-.1-.14-.07-.16-.07-.16-.07-.14-.05-.16-.05-.18-.02-.16-.02-.16-.02-.18v-2.34l.02-.16.02-.18.02-.16.05-.16.05-.16.07-.16.07-.16.07-.14.1-.14.1-.14.1-.14.12-.14.15-.14.12-.12.15-.14.17-.12.15-.1.17-.12.17-.1.17-.08.17-.08.17-.08.19-.06.17-.06.19-.06.19-.04.19-.02.19-.04.22-.02h2.68Zm18.37,2.38l-.05-.12-.07-.1-.1-.1-.1-.08-.1-.08-.12-.06-.15-.06-.17-.04-.17-.04-.17-.02-.22-.02h-.22l-5.85-.04h-.24l-.1.02h-.12l-.1.02h-.1l-.07.02-.1.02-.07.02-.07.02-.07.02-.05.02-.05.04-.07.02-.02.02-.05.04-.1.08-.1.1-.07.08-.07.1-.05.1-.02.08-.02.1v6.34l-1.83-.02V6.02h1.83v.3l.1-.02.12-.04.12-.02.12-.02.12-.02.15-.02.12-.02.15-.02h.15l.12-.02h.46l5.82.02h.22l.22.02h.22l.19.02.19.04.19.02.17.04.17.06.17.04.17.06.15.06.15.08.12.08.15.08.12.08.1.1.1.1.1.08.07.12.07.1.07.1.07.12.05.12.05.12.05.14.02.12.05.14.02.14.02.14v.16l.02.14v1.04h-1.71v-.86l-.02-.16v-.16l-.05-.14-.05-.12Zm15.59,4.16v.14l-.02.14-.02.14-.02.12-.05.14-.05.12-.07.12-.07.12-.1.12-.07.1-.12.12-.1.1-.12.1-.15.1-.12.08-.17.08-.12.08-.15.06-.15.06-.15.06-.15.06-.15.04-.15.06-.15.02-.17.04-.15.04-.17.02-.17.02-.17.02h-.17l-.17.02h-.17l-5.41-.04h-.22l-.22-.02-.19-.02-.19-.02-.19-.04-.19-.06-.19-.06-.17-.06-.17-.08-.17-.08-.17-.1-.15-.1-.15-.12-.15-.12-.15-.12-.12-.14-.12-.12-.1-.12-.1-.12-.07-.12-.07-.14-.07-.12-.07-.14-.07-.12-.05-.14-.05-.14-.02-.14-.02-.14-.02-.14-.02-.14v-.14l-.02-.16V1.84h1.83v4.26l11.04.06v1.48l-11.04-.04v4.06l.02.06v.16l.02.06.02.08v.06l.05.08.02.08.02.06.05.08.02.06.05.08.05.08.07.06.05.08.07.06.07.08.07.08.07.06.07.06.07.06.07.06.1.04.07.04.07.04.1.02.07.04.1.02.07.02h.1l.1.02h.1l5.48.02h.17l.17-.02h.17l.15-.04.17-.02.15-.04.15-.04.15-.06.19-.08.15-.08.12-.1.1-.1.07-.1.05-.12.02-.12v-1.02h1.73v1Zm-33.96,2.3v-1.5l2.24.02h.12l.12-.02h.12l.12-.02.1-.02.12-.02.1-.02.1-.04.1-.04.1-.04.1-.04.1-.06.1-.04.1-.06.1-.08.07-.06.1-.08.07-.06.07-.08.07-.08.05-.08.07-.08.05-.08.05-.08.02-.08.05-.1.02-.08.02-.1.02-.1v-.08l.02-.1v-2.2l-.02-.1v-.08l-.02-.1-.02-.1-.02-.08-.05-.08-.02-.1-.05-.08-.05-.08-.07-.08-.05-.08-.07-.08-.07-.08-.07-.08-.1-.06-.07-.08-.1-.06-.1-.06-.1-.06-.1-.04-.1-.06-.1-.04-.1-.04-.1-.02-.12-.04-.1-.02-.12-.02-.1-.02h-.12l-.12-.02h-2.36v-1.5l2.27.02h.19l.22.02.19.02.22.02.19.04.19.04.17.06.19.06.19.06.17.08.17.08.17.08.17.1.17.12.15.1.15.12.15.14.15.12.12.14.12.14.12.14.1.14.07.14.1.16.07.16.05.14.07.16.02.18.05.16.02.16v2.7l-.02.16-.05.16-.02.18-.07.16-.05.14-.07.16-.07.16-.1.14-.1.14-.12.14-.1.14-.15.12-.12.14-.15.12-.17.12-.15.12-.17.1-.17.1-.17.08-.17.08-.17.08-.19.06-.17.06-.19.06-.19.04-.19.02-.22.04-.19.02h-2.68Zm39.05-7.18l-.12.02h-.24l-.1.02-.12.02-.1.02-.1.04-.12.02-.1.04-.1.04-.1.04-.1.06-.1.06-.07.04-.1.08-.1.06-.07.08-.07.06-.07.08-.07.08-.07.08-.05.06-.05.08-.05.1-.05.08-.02.08-.05.08-.02.1-.02.08v.1l9.43.04,1.58.06v1.44l-11.04-.06v.84l.02.1v.08l.02.1.02.1.02.08.05.08.02.1.05.08.05.08.07.08.05.08.07.08.07.08.07.08.1.06.07.08.1.06.1.06.1.06.1.04.1.06.1.04.1.04.1.02.12.04.1.02.12.02.1.02.12.02h.24l8.67.04v1.5l-8.7-.04-.19-.02h-.22l-.19-.02-.19-.04-.22-.04-.19-.04-.17-.04-.19-.06-.19-.08-.17-.08-.17-.08-.17-.08-.17-.1-.17-.1-.15-.12-.15-.12-.15-.14-.15-.12-.12-.14-.12-.14-.12-.14-.1-.14-.07-.14-.1-.16-.07-.14-.05-.16-.05-.16-.05-.16-.05-.18-.02-.16v-2.68l.02-.16.05-.18.05-.16.05-.16.05-.16.07-.14.1-.16.07-.14.1-.14.12-.14.12-.14.12-.14.15-.12.15-.12.15-.12.17-.12.15-.1.17-.1.17-.1.17-.08.19-.06.17-.08.19-.06.19-.04.19-.04.19-.04.19-.02.22-.02.19-.02h.22l8.67.04v1.48l-8.67-.04Z"/>
        <path class="cls-3" d="m150.83,2.3V.8h.76v.26h-.39v.38h.39v.32s-.07-.06-.12-.06c-.02-.02-.1-.02-.17-.02h-.1v.62h-.37Zm.76-1.5h.02c.19,0,.34.02.44.04.07.04.15.08.19.14.05.08.1.16.1.24,0,.12-.05.2-.12.28-.1.08-.22.12-.37.14.07.04.15.08.19.12.05.04.12.12.19.24l.24.3h-.44l-.27-.32c-.1-.12-.17-.2-.19-.22v-.32c.12,0,.19-.02.22-.02.05-.02.07-.04.1-.06.02-.04.05-.08.05-.12s-.02-.08-.05-.12-.07-.06-.15-.06h-.17v-.26Z"/>
        <path class="cls-4" d="m151.56.24c.88,0,1.61.58,1.61,1.3s-.73,1.32-1.61,1.32-1.58-.58-1.58-1.32.71-1.3,1.58-1.3Z"/>
      </g>
    </g>
  </g>
</svg>