<?xml version="1.0" encoding="utf-8"?>
<!-- Generator: Adobe Illustrator 26.3.1, SVG Export Plug-In . SVG Version: 6.00 Build 0)  -->
<svg version="1.1" id="Livello_1" xmlns="http://www.w3.org/2000/svg" xmlns:xlink="http://www.w3.org/1999/xlink" x="0px" y="0px"
	 viewBox="0 0 500 140.3" style="enable-background:new 0 0 500 140.3;" xml:space="preserve">
<style type="text/css">
	.st0{fill:#E30613;}
	.st1{fill:#3C3C3B;}
</style>
<g>
	<path class="st0" d="M77.5,65.4c-0.3,0-0.7,0-1,0c14.1-1.4,26.7-12.7,28.9-26.5c2.3-14.7-8.2-26.5-23.4-26.5c-0.5,0-0.9,0-1.4,0
		H40.8v0.1c-8.2,0.5-15.6,7.1-16.8,15L9.3,123c-0.6,4,2.1,7.3,6.1,7.6H16l54.4-0.1C87.9,129,103.6,115,106.2,98
		C109,80,96.1,65.4,77.5,65.4z M48.9,33.6h15.4c5.6,0.1,9.4,4.4,8.6,9.8s-6,9.7-11.6,9.7h-0.1H45.9L48.9,33.6z M74.7,94.4
		c-0.9,6.3-7.1,11.5-13.6,11.5c-0.3,0-0.5,0-0.8,0H38.4l3.5-23h21.9c0.3,0,0.6,0,0.8,0C71.2,82.9,75.7,88.1,74.7,94.4z"/>
	<path class="st0" d="M173.1,94.2l-9.9-53.1c-1.3-4.6-5.5-7.8-10.9-7.8c-5.3,0-10.4,3.2-13.2,7.8c0,0,0,0,0,0.1L113.4,94
		c-0.6,1.1-1,2.2-1.2,3.4c-0.7,4.9,2.6,8.8,7.5,8.8c3.9,0,7.6-2.6,9.3-6.1l4-8.3h21.1l1.5,7.8c0,0.1,0.1,0.3,0.1,0.4
		c0.7,3.4,3.6,5.8,7.4,5.8c4.9,0,9.4-3.9,10.1-8.8C173.3,96,173.3,95.1,173.1,94.2z M140.4,76.5l7.9-16.3l3,16.3H140.4z"/>
	<path class="st0" d="M215.3,33.4h-30.4c-4.2,0-8.1,3.4-8.7,7.6s2.3,7.6,6.5,7.6h6.4l-7.2,48.7c-0.7,4.9,2.6,8.8,7.5,8.8
		s9.4-3.9,10.1-8.8l7.3-48.7h6.4c4.2,0,8.1-3.4,8.7-7.6C222.3,36.8,219.5,33.4,215.3,33.4z"/>
	<path class="st0" d="M280,106.1c0.1,0,31.6,0,31.6,0h0.4c4-0.2,7.7-3.5,8.3-7.6c0.6-4.1-2.1-7.4-6.1-7.6h-22l7.2-48.7
		c0.7-4.9-2.6-8.8-7.5-8.8s-9.4,3.9-10.1,8.8l-8.4,56.3v0.4C273.1,102.9,275.9,106.1,280,106.1z"/>
	<path class="st0" d="M334.3,106.1c0.1,0,0.4,0,0.4,0h27.6h0.4c4-0.2,7.7-3.5,8.3-7.6s-2.1-7.4-6.1-7.6h-18.4l2.1-14.4H367
		c4-0.2,7.7-3.5,8.3-7.6c0.6-4.1-2.1-7.4-6.1-7.6h-18.4l1.9-12.8h18h0.4c4-0.2,7.7-3.5,8.3-7.6c0.6-4.1-2.1-7.4-6.1-7.6h-28h-0.4
		c-4.2,0-8.1,3.4-8.7,7.6c-0.1,0.4-0.2,1.2-0.2,1.2l-4,26.8l-4.4,29.6v0.4C327.4,102.9,330.2,106.1,334.3,106.1z"/>
	<path class="st0" d="M269,69c0.7-4.1-2-7.4-6-7.6h-18.4l1.9-12.8h18h0.4c4-0.2,7.7-3.5,8.3-7.6c0.6-4.1-2.1-7.4-6.1-7.6h-28.4
		c-4.2,0-8.1,3.4-8.7,7.6c-0.1,0.4-0.2,1.2-0.2,1.2l-4,26.8l-4.2,28.4c-0.7,4.9,2.6,8.8,7.5,8.8s9.4-3.9,10.1-8.8l3.1-20.8h18h0.4
		C264.7,76.4,268.4,73.1,269,69z"/>
	<path class="st0" d="M452.4,116.3c-0.2-0.5-24.7-41.2-24.7-41.2l25.1-26.7c0.2-0.2,0.5-0.5,0.7-0.7c3.6-3.8,3.8-9.3,0.4-12.4
		c-3.4-3-9-2.3-12.6,1.5c-0.2,0.2-0.5,0.4-0.7,0.7l-21.6,23c0,0-14-23.5-14.1-23.7c-2.3-3.9-7.7-4.7-12-1.8s-6,8.4-3.6,12.3
		c0,0.1,0.1,0.2,0.1,0.2l16.2,27.2l-32.9,35c-2,1.7-4.2,2.7-6.4,3h-85.6c-0.1,0-0.1,0-0.2,0s-0.1,0-0.2,0l-1.6,0.2
		c-4.1,0.8-7.6,4.4-8.2,8.6s1.8,7.7,5.7,8.6l94.7,0.2c2.8,0.1,5.7-1.1,7.8-3.2l35.5-37.7l22.6,37.5c2.4,3.8,7.7,4.6,12,1.7
		C453.1,125.7,454.7,120.2,452.4,116.3z"/>
	<path class="st1" d="M482.9,30.4c-6,0-10.9,4.9-10.9,10.9s4.9,10.9,10.9,10.9s10.9-4.8,10.9-10.9C493.8,35.3,488.9,30.4,482.9,30.4
		z M482.9,50.2c-4.9,0-8.9-4-8.9-8.9s4-8.9,8.9-8.9s8.9,4,8.9,8.9S487.8,50.2,482.9,50.2z"/>
	<path class="st1" d="M487.4,46.3c0-0.1-0.1-0.3-0.2-0.5l-1-2.3c-0.1-0.2-0.2-0.5-0.3-0.7c-0.1-0.2-0.3-0.4-0.4-0.6
		c-0.1-0.1-0.2-0.3-0.4-0.4c-0.2-0.1-0.3-0.2-0.5-0.3c0.4-0.1,0.7-0.2,1-0.4s0.5-0.5,0.7-0.7c0.2-0.3,0.3-0.6,0.4-0.9
		c0.1-0.4,0.1-0.7,0.1-1.1c0-0.4-0.1-0.8-0.2-1.2c-0.1-0.3-0.3-0.6-0.6-0.9c-0.2-0.2-0.5-0.4-0.9-0.6c-0.4-0.1-0.8-0.2-1.3-0.3
		c-0.1,0-0.3,0-0.5,0c-0.1,0-0.4,0-0.7,0h-3c-0.2,0-0.4,0.1-0.5,0.2c-0.1,0.1-0.2,0.3-0.2,0.6v10.5c0,0.1,0.1,0.2,0.1,0.2
		s0.1,0.1,0.2,0.1c0.1,0.1,0.2,0.1,0.4,0.1s0.4,0,0.6,0c0.3,0,0.4,0,0.6,0s0.3-0.1,0.4-0.1s0.2-0.1,0.2-0.1c0.1-0.1,0.1-0.1,0.1-0.2
		v-4.4h0.7c0.3,0,0.5,0,0.7,0.1c0.2,0,0.4,0.1,0.5,0.3s0.3,0.4,0.4,0.6c0.2,0.3,0.3,0.5,0.4,0.8l1,2.6c0,0.1,0.1,0.2,0.1,0.2
		s0.1,0.1,0.2,0.1c0.1,0.1,0.3,0.1,0.4,0.1c0.2,0,0.3,0,0.6,0s0.5,0,0.7,0c0.2-0.1,0.3-0.1,0.4-0.1s0.2-0.1,0.2-0.1
		c0-0.1,0-0.1,0-0.2C487.8,46.6,487.7,46.5,487.4,46.3z M484.2,40c-0.1,0.1-0.3,0.2-0.6,0.3c-0.3,0.1-0.6,0.1-0.9,0.1h-1.2v-3.3h1.1
		c0.2,0,0.4,0,0.6,0c0.1,0,0.3,0.1,0.4,0.1c0.3,0.2,0.6,0.3,0.8,0.6s0.3,0.6,0.3,1c0,0.3,0,0.5-0.1,0.7S484.4,39.9,484.2,40z"/>
</g>
</svg>
