<?xml version="1.0" encoding="UTF-8"?>
<svg id="uuid-4c175372-da31-4cc9-89ab-4fbe7c65d581" data-name="Layer 2" xmlns="http://www.w3.org/2000/svg" width="116.22" height="32.97" viewBox="0 0 116.22 32.97">
  <g id="uuid-1ef70820-d8d7-41bb-8066-ab601d80ae28" data-name="Layer 1">
    <g>
      <path d="M14.87,7.05c-.27-2-1.95-2.05-3.18-2.05-1.1,0-1.98.01-2.5.11-1.41.27-1.59.81-1.59,1.84,0,1.18.09,2,4.09,2.09,8.09.18,11.69.64,11.69,7.32s-5.41,8.05-11.69,8.05-11.69.14-11.69-7.73h7.82c0,2.68,1.96,2.68,3.87,2.68,3.54,0,4.09-.23,4.09-2.09,0-2.36-1.36-2.36-4.09-2.36C1.78,14.92,0,12.69,0,7.82,0,.14,5.05,0,11.69,0,16.05,0,22.24.05,22.24,5.91v1.14h-7.37" style="fill: #008296;"/>
      <path d="M37.38,14.28c2.54,0,4.27.06,4.27.06l.04,4.72s-2.27.01-4.31.01c-1.19,0-3.41.02-3.41-2.29,0-2.18,1.5-2.5,3.41-2.5M49.47,24.15v-14.92C49.47,1,46.11,0,38.1,0,32.51,0,27.1-.05,27.1,7.37h7.82c0-2.14,1.23-2.59,3.18-2.59,3.41,0,3.55,1.41,3.55,3.64v1.4s-4.64-.31-6.87-.31c-5.63,0-8.63,1.77-8.63,7.5,0,6.09,3.18,7.41,8.63,7.41,2.73,0,14.69-.27,14.69-.27" style="fill: #008296;"/>
      <path d="M91.57,14.28c2.55,0,4.28.06,4.28.06l.03,4.72s-2.26.01-4.31.01c-1.18,0-3.41.02-3.41-2.29,0-2.18,1.5-2.5,3.41-2.5M103.67,24.15v-14.92C103.67,1,100.3,0,92.3,0c-5.59,0-11-.05-11,7.37h7.82c0-2.14,1.22-2.59,3.18-2.59,3.41,0,3.55,1.41,3.55,3.64v1.4s-4.64-.31-6.87-.31c-5.64,0-8.64,1.77-8.64,7.5,0,6.09,3.18,7.41,8.64,7.41,2.73,0,14.69-.27,14.69-.27" style="fill: #008296;"/>
      <path d="M65.15,6c4.14,0,4.32,1.59,4.32,6.23,0,5.41-1.16,6.18-4.32,6.18-1.4,0-3.92-.25-3.92-.25,0,0,0-3.77,0-5.93,0-5.05.59-6.23,3.91-6.23M53.42,32.97h7.82v-8.92s4.14.38,7,.38c6.55,0,9.05-2.91,9.05-10.18v-5.46c0-6.32-3.27-8.78-9.05-8.78-2.15,0-4.11.34-5.36,1.04-1.26.7-1.65,1.12-1.65,1.12V.27s-7.81,0-7.81,0v32.7Z" style="fill: #008296;"/>
      <path d="M116.22,6.68c0,2.12-1.71,3.83-3.83,3.83s-3.83-1.72-3.83-3.83,1.72-3.83,3.83-3.83,3.83,1.72,3.83,3.83" style="fill: #a19288;"/>
      <path d="M116.22,20.54c0,2.11-1.71,3.83-3.83,3.83s-3.83-1.71-3.83-3.83,1.72-3.83,3.83-3.83,3.83,1.72,3.83,3.83" style="fill: #a19288;"/>
    </g>
  </g>
</svg>