<?xml version="1.0" encoding="UTF-8"?>
<svg id="Layer_2" xmlns="http://www.w3.org/2000/svg" viewBox="0 0 3401.17 973.43">
  <defs>
    <style>
      .cls-1 {
        fill: #77b82d;
      }

      .cls-2 {
        fill: #333;
      }
    </style>
  </defs>
  <g id="Livello_1">
    <g>
      <g>
        <g>
          <path class="cls-2" d="M963.06,525.35h-70.08V106.62c29.3-2.87,59.74-5.74,91.9-5.74,124.07,0,170.02,41.93,170.02,131.54s-51.12,138.43-141.88,138.43h-49.97v154.51ZM963.06,309.95h55.14c42.51,0,67.78-26.42,67.78-75.24,0-45.38-21.83-66.06-79.27-66.06-13.78,0-28.14.57-43.65,2.3v139Z"/>
          <path class="cls-2" d="M1362.24,102.59l153.94,422.76h-74.1l-36.18-103.97h-167.73l-36.19,103.97h-72.95l154.52-422.76h78.69ZM1260.57,356.48h122.35l-61.46-176.34-60.89,176.34Z"/>
          <path class="cls-2" d="M1906.17,314.55c0,145.9-75.82,218.27-193,218.27s-194.14-72.37-194.14-218.84,75.82-217.7,193.57-217.7,193.57,71.23,193.57,218.28ZM1589.68,314.55c0,113.73,51.7,153.36,122.92,153.36s122.92-40.79,122.92-153.94-52.27-153.36-123.49-153.36-122.35,40.2-122.35,153.94Z"/>
          <path class="cls-2" d="M2041.69,102.59v356.13h155.66v66.62h-226.31V102.59h70.65Z"/>
          <path class="cls-2" d="M2305.31,102.59v290.07c0,51.12,35.04,73.52,80.99,73.52s82.14-22.97,82.14-73.52V102.59h69.5v296.39c0,86.74-68.35,133.84-152.21,133.84s-151.07-44.81-151.07-133.84V102.59h70.65Z"/>
          <path class="cls-2" d="M2900.93,181.86c-31.59-15.5-73.52-21.25-103.39-21.25-74.67,0-131.53,41.35-131.53,153.94s58.01,153.36,129.24,153.36c31.02,0,74.67-6.89,103.39-22.98l21.83,63.19c-35.04,15.51-92.48,24.7-132.69,24.7-112.58,0-191.84-72.95-191.84-218.27s76.97-218.28,193-218.28c39.05,0,96.5,8.04,131.54,23.55l-19.53,62.03Z"/>
          <path class="cls-2" d="M3250.7,181.86c-31.59-15.5-73.52-21.25-103.39-21.25-74.67,0-131.53,41.35-131.53,153.94s58.01,153.36,129.24,153.36c31.02,0,74.67-6.89,103.39-22.98l21.83,63.19c-35.04,15.51-92.48,24.7-132.69,24.7-112.58,0-191.84-72.95-191.84-218.27s76.97-218.28,193-218.28c39.05,0,96.5,8.04,131.54,23.55l-19.53,62.03Z"/>
          <path class="cls-2" d="M3401.17,102.59v422.76h-71.23V102.59h71.23Z"/>
        </g>
        <g>
          <rect class="cls-2" x="890.48" y="668.7" width="16.46" height="237.6"/>
          <polygon class="cls-2" points="1248.87 878.63 1082.32 669.64 1081.57 668.7 1069.35 668.7 1069.35 906.3 1085.81 906.3 1085.81 699.96 1249.74 905.35 1250.5 906.3 1265.33 906.3 1265.33 668.7 1248.87 668.7 1248.87 878.63"/>
          <polygon class="cls-2" points="1427.73 906.3 1444.19 906.3 1444.19 792.62 1562.46 792.62 1562.46 777.46 1444.19 777.46 1444.19 684.18 1583.42 684.18 1583.42 668.7 1427.73 668.7 1427.73 906.3"/>
          <rect class="cls-2" x="1728.13" y="668.7" width="16.46" height="237.6"/>
          <path class="cls-2" d="M2042.55,800.31c-7.36-4.8-16.39-8.81-26.86-11.93-10.25-3.06-21.89-5.94-34.6-8.57-12.34-2.6-23.09-5.17-31.94-7.66-8.67-2.43-15.82-5.47-21.26-9.02-5.29-3.46-9.24-7.71-11.75-12.65-2.54-4.96-3.82-11.25-3.82-18.68,0-15.08,5.17-26.78,15.81-35.76,10.62-8.96,28.16-13.5,52.12-13.5,13.38,0,25.21,1.88,35.16,5.57,9.84,3.67,18.99,10.12,27.2,19.16l2.06,2.27,9.28-12.7-1.48-1.51c-9.59-9.82-20.36-17.07-32.01-21.55-11.6-4.46-25.23-6.72-40.53-6.72-12.39,0-23.86,1.47-34.09,4.36-10.31,2.91-19.24,7.18-26.54,12.7-7.39,5.57-13.2,12.59-17.28,20.87-4.08,8.29-6.16,17.86-6.16,28.46,0,9.99,1.81,18.43,5.38,25.09,3.57,6.68,8.92,12.39,15.9,16.97,6.84,4.49,15.33,8.23,25.24,11.12,9.77,2.85,21.14,5.63,33.78,8.24,12.7,2.58,23.92,5.37,33.34,8.29,9.22,2.86,16.95,6.29,22.96,10.19,5.83,3.79,10.24,8.44,13.08,13.81,2.85,5.41,4.3,12.13,4.3,19.97,0,15.61-5.78,26.86-17.68,34.41-12.09,7.68-29,11.57-50.26,11.57-17.31,0-32.97-2.8-46.56-8.34-13.59-5.52-25.87-13.82-36.5-24.66l-1.93-1.97-10.17,12.1,1.71,1.62c12.85,12.19,27.01,21.34,42.09,27.21,15.07,5.88,32.24,8.86,51.03,8.86,12.56,0,24.17-1.29,34.51-3.85,10.39-2.56,19.43-6.49,26.87-11.68,7.51-5.24,13.34-11.82,17.33-19.57,3.99-7.74,6.01-16.83,6.01-27.03s-2.09-19.76-6.21-27.1c-4.12-7.31-10.01-13.5-17.52-18.4Z"/>
          <path class="cls-2" d="M2344.59,800.31c-7.36-4.8-16.39-8.81-26.86-11.93-10.25-3.06-21.89-5.94-34.6-8.57-12.34-2.6-23.09-5.17-31.94-7.66-8.67-2.43-15.82-5.47-21.26-9.02-5.29-3.46-9.24-7.71-11.75-12.65-2.54-4.96-3.82-11.25-3.82-18.68,0-15.08,5.17-26.78,15.81-35.76,10.62-8.96,28.16-13.5,52.12-13.5,13.38,0,25.21,1.88,35.16,5.57,9.84,3.67,18.99,10.12,27.2,19.16l2.06,2.27,9.28-12.7-1.48-1.51c-9.59-9.82-20.36-17.07-32.01-21.55-11.6-4.46-25.23-6.72-40.53-6.72-12.39,0-23.86,1.47-34.09,4.36-10.31,2.91-19.24,7.18-26.54,12.7-7.39,5.57-13.2,12.59-17.28,20.87-4.08,8.29-6.16,17.86-6.16,28.46,0,9.99,1.81,18.43,5.38,25.09,3.57,6.68,8.92,12.39,15.9,16.97,6.84,4.49,15.33,8.23,25.24,11.12,9.77,2.85,21.14,5.63,33.78,8.24,12.7,2.58,23.92,5.37,33.34,8.29,9.22,2.86,16.95,6.29,22.96,10.19,5.83,3.79,10.24,8.44,13.08,13.81,2.85,5.41,4.3,12.13,4.3,19.97,0,15.61-5.78,26.86-17.68,34.41-12.09,7.68-29,11.57-50.26,11.57-17.31,0-32.97-2.8-46.56-8.34-13.59-5.52-25.87-13.82-36.5-24.66l-1.93-1.97-10.17,12.1,1.71,1.62c12.85,12.19,27.01,21.34,42.09,27.21,15.07,5.88,32.24,8.86,51.03,8.86,12.56,0,24.17-1.29,34.51-3.85,10.39-2.56,19.43-6.49,26.87-11.68,7.51-5.24,13.34-11.82,17.34-19.57,3.99-7.74,6.01-16.83,6.01-27.03s-2.09-19.76-6.21-27.1c-4.12-7.31-10.01-13.5-17.52-18.4Z"/>
          <rect class="cls-2" x="2511.08" y="668.7" width="16.46" height="237.6"/>
        </g>
      </g>
      <g>
        <polygon class="cls-1" points="719.07 973.43 303.22 973.43 303.22 859.7 605.34 859.7 605.34 157.38 113.73 352 113.73 971.62 0 971.62 0 285.57 719.07 0 719.07 973.43"/>
        <polygon class="cls-1" points="420.54 439.63 304.54 482.72 304.54 668.9 420.54 681.34 420.54 439.63"/>
      </g>
    </g>
  </g>
</svg>