<?xml version="1.0" encoding="UTF-8"?>
<svg id="Layer_2" data-name="Layer 2" xmlns="http://www.w3.org/2000/svg" viewBox="0 0 101.69 36.29">
  <defs>
    <style>
      .cls-1 {
        fill: #fff;
      }

      .cls-1, .cls-2 {
        stroke-width: 0px;
      }

      .cls-2 {
        fill: #ed1c24;
      }
    </style>
  </defs>
  <g id="Layer_1-2" data-name="Layer 1">
    <g>
      <path class="cls-2" d="m83.54,0c-7.2,0-13.42,4.19-16.35,10.26-2.93-6.07-9.15-10.26-16.35-10.26s-13.41,4.19-16.35,10.26C31.56,4.19,25.34,0,18.15,0,8.12,0,0,8.12,0,18.15s8.12,18.15,18.15,18.15c7.2,0,13.42-4.19,16.35-10.26,2.93,6.07,9.15,10.26,16.35,10.26s13.41-4.19,16.35-10.26c2.93,6.07,9.15,10.26,16.35,10.26,10.02,0,18.15-8.12,18.15-18.15S93.56,0,83.54,0"/>
      <path class="cls-1" d="m18.38,10.66h-.07l-3.24,10.83h6.55l-3.24-10.83Zm-2.61-4.32h5.16l7.87,23.66h-4.63l-1.36-4.58h-8.93l-1.36,4.58h-4.63L15.77,6.34Z"/>
      <path class="cls-1" d="m56.65,14.38c-.5-1.89-1.99-4.52-5.89-4.52-4.7,0-6.65,4.19-6.65,8.31s1.95,8.31,6.65,8.31c3.14,0,5.99-2.23,5.99-5.48h-5.82v-3.92h9.86v12.92h-3.84v-2.03c-1.55,1.76-4.14,2.63-6.19,2.63-7.54,0-11.28-5.75-11.28-12.43s4.24-12.43,11.28-12.43c4.8,0,8.24,2.43,10.02,6.95l-4.14,1.69Z"/>
      <path class="cls-1" d="m79.61,15.84h5.26c1.95,0,3.74-.76,3.74-3.02,0-1.79-1.16-2.96-3.74-2.96h-5.26v5.98Zm0,10.23h5.76c2.68,0,4.3-.83,4.3-3.29,0-2.66-1.65-3.62-4.33-3.62h-5.72v6.91Zm-4.43-19.74h11.08c3.87,0,6.98,1.96,6.98,5.88,0,2.59-1.42,4.29-4,4.79v.07c3.24.33,5.06,3.02,5.06,5.85,0,5.91-4.2,7.08-9.1,7.08h-10.02V6.34Z"/>
    </g>
  </g>
</svg>