<?xml version="1.0" encoding="UTF-8"?>
<svg id="Layer_2" xmlns="http://www.w3.org/2000/svg" viewBox="0 0 1716.13 1485.69">
  <defs>
    <style>
      .cls-1 {
        fill: #77b82d;
      }

      .cls-2 {
        fill: #333;
      }
    </style>
  </defs>
  <g id="Livello_1">
    <g>
      <g>
        <path class="cls-2" d="M47.95,1155.94H0v-286.5c20.05-1.97,40.88-3.93,62.88-3.93,84.89,0,116.33,28.69,116.33,90s-34.98,94.71-97.08,94.71h-34.19v105.72ZM47.95,1008.56h37.73c29.08,0,46.37-18.08,46.37-51.48,0-31.05-14.93-45.2-54.24-45.2-9.43,0-19.26.39-29.87,1.57v95.11Z"/>
        <path class="cls-2" d="M321.07,866.68l105.33,289.25h-50.7l-24.76-71.13h-114.76l-24.76,71.13h-49.91l105.72-289.25h53.84ZM251.51,1040.4h83.71l-42.05-120.66-41.66,120.66Z"/>
        <path class="cls-2" d="M693.23,1011.71c0,99.83-51.88,149.34-132.05,149.34s-132.83-49.52-132.83-149.73,51.88-148.95,132.44-148.95,132.44,48.74,132.44,149.35ZM476.69,1011.71c0,77.81,35.37,104.93,84.1,104.93s84.1-27.91,84.1-105.32-35.76-104.93-84.5-104.93-83.71,27.51-83.71,105.32Z"/>
        <path class="cls-2" d="M785.96,866.68v243.67h106.51v45.59h-154.85v-289.25h48.34Z"/>
        <path class="cls-2" d="M966.33,866.68v198.47c0,34.98,23.98,50.31,55.42,50.31s56.2-15.72,56.2-50.31v-198.47h47.55v202.79c0,59.35-46.77,91.57-104.14,91.57s-103.36-30.66-103.36-91.57v-202.79h48.34Z"/>
        <path class="cls-2" d="M1373.86,920.92c-21.61-10.61-50.31-14.54-70.74-14.54-51.09,0-89.99,28.29-89.99,105.32s39.69,104.93,88.43,104.93c21.22,0,51.09-4.71,70.74-15.72l14.93,43.23c-23.98,10.61-63.28,16.9-90.79,16.9-77.03,0-131.26-49.91-131.26-149.34s52.66-149.35,132.05-149.35c26.72,0,66.02,5.5,90,16.11l-13.37,42.44Z"/>
        <path class="cls-2" d="M1613.18,920.92c-21.61-10.61-50.31-14.54-70.74-14.54-51.09,0-89.99,28.29-89.99,105.32s39.69,104.93,88.43,104.93c21.22,0,51.09-4.71,70.74-15.72l14.93,43.23c-23.98,10.61-63.28,16.9-90.79,16.9-77.03,0-131.26-49.91-131.26-149.34s52.66-149.35,132.05-149.35c26.72,0,66.02,5.5,90,16.11l-13.37,42.44Z"/>
        <path class="cls-2" d="M1716.13,866.68v289.25h-48.74v-289.25h48.74Z"/>
      </g>
      <g>
        <rect class="cls-2" x="298.03" y="1322.43" width="10.84" height="162.14"/>
        <polygon class="cls-2" points="543.24 1466.45 428.91 1322.99 428.46 1322.43 420.41 1322.43 420.41 1484.57 431.25 1484.57 431.25 1343 543.8 1484.01 544.25 1484.57 554.09 1484.57 554.09 1322.43 543.24 1322.43 543.24 1466.45"/>
        <polygon class="cls-2" points="665.62 1484.57 676.46 1484.57 676.46 1406.79 757.38 1406.79 757.38 1396.84 676.46 1396.84 676.46 1332.6 771.73 1332.6 771.73 1322.43 665.62 1322.43 665.62 1484.57"/>
        <rect class="cls-2" x="871.16" y="1322.43" width="10.84" height="162.14"/>
        <path class="cls-2" d="M1085.96,1412.44c-5.02-3.27-11.19-6.01-18.32-8.14-7.01-2.09-14.97-4.06-23.66-5.86-8.44-1.78-15.8-3.54-21.87-5.24-5.95-1.67-10.86-3.76-14.6-6.2-3.65-2.39-6.38-5.33-8.11-8.73-1.75-3.42-2.64-7.76-2.64-12.88,0-10.24,3.67-18.53,10.9-24.63,7.31-6.16,19.35-9.29,35.8-9.29,9.18,0,17.3,1.29,24.13,3.83,6.76,2.52,13.05,6.95,18.69,13.16l1.24,1.36,6.09-8.33-.89-.91c-6.54-6.7-13.89-11.64-21.83-14.7-7.91-3.04-17.21-4.58-27.66-4.58-8.46,0-16.29,1-23.27,2.97-7.03,1.98-13.11,4.89-18.09,8.65-5.03,3.79-8.99,8.57-11.76,14.2-2.78,5.64-4.19,12.16-4.19,19.38,0,6.8,1.23,12.54,3.65,17.07,2.42,4.54,6.06,8.42,10.81,11.53,4.66,3.06,10.45,5.61,17.21,7.58,6.68,1.95,14.45,3.85,23.1,5.63,8.71,1.77,16.39,3.68,22.83,5.68,6.33,1.96,11.63,4.32,15.76,7,4.02,2.61,7.06,5.82,9.02,9.53,1.97,3.73,2.96,8.36,2.96,13.76,0,10.76-3.99,18.52-12.19,23.72-8.3,5.27-19.91,7.95-34.5,7.95-11.87,0-22.61-1.92-31.94-5.72-9.33-3.79-17.75-9.48-25.04-16.92l-1.16-1.18-6.68,7.95,1.02.97c8.77,8.32,18.43,14.57,28.73,18.58,10.28,4.01,22.01,6.05,34.84,6.05,8.58,0,16.5-.88,23.56-2.63,7.08-1.75,13.25-4.42,18.32-7.96,5.11-3.56,9.08-8.04,11.79-13.32,2.71-5.27,4.09-11.46,4.09-18.4s-1.42-13.45-4.22-18.44c-2.8-4.97-6.81-9.18-11.92-12.51Z"/>
        <path class="cls-2" d="M1292.62,1412.44c-5.02-3.27-11.18-6.01-18.32-8.14-7.01-2.09-14.97-4.06-23.66-5.86-8.45-1.78-15.8-3.54-21.87-5.24-5.95-1.67-10.86-3.76-14.6-6.2-3.65-2.39-6.38-5.33-8.11-8.73-1.75-3.42-2.64-7.76-2.64-12.88,0-10.24,3.67-18.53,10.9-24.63,7.31-6.16,19.35-9.29,35.8-9.29,9.18,0,17.3,1.29,24.13,3.83,6.76,2.52,13.05,6.95,18.69,13.16l1.24,1.36,6.09-8.33-.89-.91c-6.54-6.7-13.89-11.64-21.83-14.7-7.91-3.04-17.21-4.58-27.66-4.58-8.46,0-16.29,1-23.27,2.97-7.03,1.98-13.11,4.89-18.09,8.65-5.03,3.79-8.98,8.57-11.76,14.2-2.78,5.64-4.19,12.16-4.19,19.38,0,6.8,1.23,12.54,3.65,17.07,2.42,4.54,6.06,8.42,10.81,11.53,4.66,3.06,10.46,5.61,17.21,7.58,6.68,1.95,14.45,3.85,23.1,5.63,8.71,1.77,16.39,3.68,22.83,5.68,6.33,1.96,11.63,4.32,15.76,7,4.02,2.61,7.06,5.82,9.02,9.53,1.97,3.73,2.96,8.36,2.96,13.76,0,10.76-3.99,18.52-12.19,23.72-8.3,5.27-19.91,7.95-34.5,7.95-11.87,0-22.61-1.92-31.94-5.72-9.33-3.79-17.75-9.48-25.04-16.92l-1.16-1.18-6.68,7.95,1.02.97c8.77,8.32,18.43,14.57,28.73,18.58,10.28,4.01,22.01,6.05,34.84,6.05,8.58,0,16.5-.88,23.56-2.63,7.08-1.75,13.25-4.42,18.32-7.96,5.11-3.56,9.08-8.04,11.79-13.32,2.71-5.27,4.09-11.46,4.09-18.4s-1.42-13.45-4.22-18.44c-2.8-4.97-6.81-9.18-11.92-12.51Z"/>
        <rect class="cls-2" x="1406.86" y="1322.43" width="10.84" height="162.14"/>
      </g>
      <g>
        <polygon class="cls-1" points="1118.8 706.83 816.84 706.83 816.84 624.25 1036.22 624.25 1036.22 114.28 679.25 255.6 679.25 705.52 596.67 705.52 596.67 207.36 1118.8 0 1118.8 706.83"/>
        <polygon class="cls-1" points="902.03 319.23 817.8 350.52 817.8 485.7 902.03 494.74 902.03 319.23"/>
      </g>
    </g>
  </g>
</svg>