<svg xmlns="http://www.w3.org/2000/svg" version="1.1" xmlns:xlink="http://www.w3.org/1999/xlink" width="35" height="36"><svg width="35" height="36" viewBox="0 0 35 36" fill="none" xmlns="http://www.w3.org/2000/svg">
<rect y="0.5" width="35" height="35" rx="17.5" fill="url(#paint0_linear_8042_251)"></rect>
<path d="M7.89364 9.99848C7.83108 9.85216 7.79795 9.69494 7.79615 9.53582C7.79435 9.37669 7.82391 9.21877 7.88314 9.07107C7.94237 8.92337 8.03011 8.78878 8.14136 8.67498C8.2526 8.56119 8.38517 8.47042 8.5315 8.40787C8.67782 8.34531 8.83504 8.31218 8.99416 8.31038C9.15329 8.30858 9.31121 8.33814 9.45891 8.39737C9.75721 8.51699 9.99577 8.75021 10.1221 9.04573L17.3889 26.0015C17.4514 26.1479 17.4846 26.3051 17.4864 26.4642C17.4882 26.6233 17.4586 26.7812 17.3994 26.9289C17.3401 27.0766 17.2524 27.2112 17.1412 27.325C17.0299 27.4388 16.8973 27.5296 16.751 27.5921C16.6047 27.6547 16.4475 27.6878 16.2884 27.6896C16.1292 27.6914 15.9713 27.6619 15.8236 27.6026C15.6759 27.5434 15.5413 27.4557 15.4275 27.3444C15.3137 27.2332 15.223 27.1006 15.1604 26.9543L7.89364 9.99848ZM22.3303 23.6519C22.3303 23.97 22.3929 24.285 22.5147 24.5789C22.6364 24.8728 22.8148 25.1398 23.0398 25.3647C23.2647 25.5897 23.5317 25.7681 23.8256 25.8898C24.1195 26.0115 24.4345 26.0742 24.7525 26.0742C25.0706 26.0742 25.3856 26.0115 25.6795 25.8898C25.9734 25.7681 26.2404 25.5897 26.4653 25.3647C26.6903 25.1398 26.8687 24.8728 26.9904 24.5789C27.1122 24.285 27.1748 23.97 27.1748 23.6519C27.1748 23.0095 26.9196 22.3934 26.4653 21.9391C26.0111 21.4849 25.395 21.2297 24.7525 21.2297C24.1101 21.2297 23.494 21.4849 23.0398 21.9391C22.5855 22.3934 22.3303 23.0095 22.3303 23.6519Z" fill="white"></path>
<defs>
<linearGradient id="SvgjsLinearGradient1001" x1="17.5" y1="0.5" x2="17.5" y2="35.5" gradientUnits="userSpaceOnUse">
<stop stop-color="#77B82D"></stop>
<stop offset="0.471154" stop-color="#5E9224"></stop>
<stop offset="1" stop-color="#333333"></stop>
</linearGradient>
</defs>
</svg><style>@media (prefers-color-scheme: light) { :root { filter: none; } }
@media (prefers-color-scheme: dark) { :root { filter: none; } }
</style></svg>
